<svg width="7" height="7" viewBox="0 0 7 7" fill="none" xmlns="http://www.w3.org/2000/svg">
<path fill-rule="evenodd" clip-rule="evenodd" d="M3.43007 0.878225C2.65632 0.878225 2.55922 0.881608 2.25532 0.895438C1.95202 0.909327 1.74499 0.957345 1.56384 1.0278C1.37646 1.10057 1.21751 1.19791 1.05915 1.35633C0.900673 1.51468 0.803331 1.67364 0.730325 1.86096C0.659693 2.04217 0.611616 2.24926 0.597964 2.55244C0.584372 2.85634 0.580811 2.9535 0.580811 3.72725C0.580811 4.501 0.584253 4.5978 0.598023 4.9017C0.611972 5.205 0.65999 5.41203 0.730384 5.59318C0.803213 5.78056 0.900554 5.93952 1.05897 6.09787C1.21727 6.25635 1.37622 6.35393 1.56349 6.4267C1.74476 6.49715 1.95184 6.54517 2.25509 6.55906C2.55898 6.57289 2.65603 6.57627 3.42972 6.57627C4.20352 6.57627 4.30033 6.57289 4.60423 6.55906C4.90753 6.54517 5.1148 6.49715 5.29606 6.4267C5.48339 6.35393 5.6421 6.25635 5.8004 6.09787C5.95888 5.93952 6.05622 5.78056 6.12923 5.59324C6.19926 5.41203 6.24734 5.20494 6.26159 4.90176C6.27524 4.59786 6.2788 4.501 6.2788 3.72725C6.2788 2.9535 6.27524 2.8564 6.26159 2.5525C6.24734 2.2492 6.19926 2.04217 6.12923 1.86102C6.05622 1.67364 5.95888 1.51468 5.8004 1.35633C5.64192 1.19785 5.48345 1.10051 5.29589 1.0278C5.11426 0.957345 4.90711 0.909327 4.60381 0.895438C4.29991 0.881608 4.20317 0.878225 3.42918 0.878225H3.43007ZM3.17448 1.39163C3.25033 1.39152 3.33497 1.39163 3.43006 1.39163C4.19075 1.39163 4.28091 1.39437 4.5813 1.40802C4.85908 1.42072 5.00984 1.46713 5.11027 1.50613C5.24323 1.55777 5.33802 1.6195 5.43767 1.71921C5.53739 1.81893 5.59912 1.9139 5.65087 2.04685C5.68987 2.14716 5.73634 2.29792 5.74899 2.5757C5.76264 2.87604 5.76561 2.96626 5.76561 3.72659C5.76561 4.48692 5.76264 4.57714 5.74899 4.87748C5.73629 5.15526 5.68987 5.30602 5.65087 5.40633C5.59924 5.53928 5.53739 5.63395 5.43767 5.73361C5.33796 5.83332 5.24329 5.89505 5.11027 5.94669C5.00996 5.98586 4.85908 6.03216 4.5813 6.04486C4.28097 6.05851 4.19075 6.06148 3.43006 6.06148C2.66931 6.06148 2.57915 6.05851 2.27882 6.04486C2.00104 6.03204 1.85028 5.98563 1.74979 5.94663C1.61683 5.89499 1.52187 5.83326 1.42215 5.73355C1.32243 5.63383 1.26071 5.5391 1.20895 5.40609C1.16995 5.30578 1.12348 5.15502 1.11084 4.87724C1.09718 4.5769 1.09445 4.48668 1.09445 3.72588C1.09445 2.96507 1.09718 2.87532 1.11084 2.57499C1.12354 2.29721 1.16995 2.14645 1.20895 2.04602C1.26059 1.91307 1.32243 1.8181 1.42215 1.71838C1.52187 1.61867 1.61683 1.55694 1.74979 1.50518C1.85022 1.46601 2.00104 1.41971 2.27882 1.40695C2.54164 1.39508 2.64349 1.39152 3.17448 1.39092V1.39163ZM4.95085 1.86469C4.7621 1.86469 4.60896 2.01765 4.60896 2.20646C4.60896 2.3952 4.7621 2.54834 4.95085 2.54834C5.13959 2.54834 5.29273 2.3952 5.29273 2.20646C5.29273 2.01771 5.13959 1.86469 4.95085 1.86469ZM3.43008 2.26415C2.62208 2.26415 1.96698 2.91925 1.96698 3.72724C1.96698 4.53524 2.62208 5.19004 3.43008 5.19004C4.23807 5.19004 4.89293 4.53524 4.89293 3.72724C4.89293 2.91925 4.23807 2.26415 3.43008 2.26415ZM3.43007 2.77757C3.95452 2.77757 4.37974 3.20272 4.37974 3.72724C4.37974 4.2517 3.95452 4.67692 3.43007 4.67692C2.90555 4.67692 2.48039 4.2517 2.48039 3.72724C2.48039 3.20272 2.90555 2.77757 3.43007 2.77757Z" fill="white"/>
</svg>
