<svg width="11" height="12" viewBox="0 0 11 12" fill="none" xmlns="http://www.w3.org/2000/svg">
<path opacity="0.1" fill-rule="evenodd" clip-rule="evenodd" d="M0.113525 5.72722C0.113525 2.77699 2.50516 0.385357 5.45539 0.385357C8.40562 0.385357 10.7973 2.77699 10.7973 5.72722C10.7973 8.67745 8.40562 11.0691 5.45539 11.0691C2.50516 11.0691 0.113525 8.67745 0.113525 5.72722Z" fill="white"/>
<path fill-rule="evenodd" clip-rule="evenodd" d="M8.30443 5.72327C8.30443 5.91594 8.28482 6.10835 8.24629 6.2959C8.20872 6.47899 8.15308 6.65875 8.08018 6.83058C8.00896 6.99938 7.92062 7.16204 7.81739 7.31374C7.7157 7.46447 7.59856 7.60589 7.46987 7.7348C7.34091 7.86316 7.19901 7.97998 7.04835 8.0821C6.89615 8.18461 6.73326 8.27282 6.56436 8.34437C6.39227 8.41689 6.2121 8.47245 6.02917 8.50995C5.84137 8.54858 5.64826 8.5683 5.45531 8.5683C5.26222 8.5683 5.06912 8.54858 4.88159 8.50995C4.69838 8.47245 4.51822 8.41689 4.34626 8.34437C4.17738 8.27282 4.01432 8.18461 3.86213 8.0821C3.71147 7.97999 3.56957 7.86316 3.44088 7.7348C3.31206 7.60589 3.19492 7.46447 3.09309 7.31374C2.99042 7.16204 2.90193 6.99937 2.83043 6.83058C2.75752 6.65875 2.70174 6.47898 2.66404 6.2959C2.62593 6.10835 2.60645 5.91594 2.60645 5.72327C2.60645 5.53045 2.62592 5.33764 2.66405 5.1505C2.70176 4.9674 2.75753 4.78737 2.83044 4.61581C2.90194 4.44689 2.99043 4.28408 3.0931 4.13238C3.19493 3.98152 3.31207 3.84037 3.44089 3.71131C3.56958 3.58295 3.71148 3.46641 3.86214 3.36444C4.01434 3.2615 4.17739 3.1733 4.34627 3.10161C4.51823 3.02894 4.69838 2.97324 4.8816 2.93602C5.06913 2.89768 5.26223 2.87822 5.45532 2.87822C5.64827 2.87822 5.84137 2.89768 6.02918 2.93602C6.21211 2.97325 6.39227 3.02895 6.56437 3.10161C6.73326 3.17328 6.89616 3.2615 7.04836 3.36444C7.19902 3.46641 7.34093 3.58295 7.46989 3.71131C7.59857 3.84037 7.71572 3.98152 7.8174 4.13238C7.92062 4.28408 8.00896 4.4469 8.08018 4.61581C8.15308 4.78737 8.20872 4.9674 8.24629 5.1505C8.28482 5.33764 8.30443 5.53045 8.30443 5.72327ZM4.4172 3.52572C3.73871 3.84565 3.23232 4.46995 3.07442 5.22233C3.13856 5.22288 4.15246 5.23567 5.32063 4.92573C4.89952 4.17863 4.44962 3.56893 4.4172 3.52572ZM5.52221 5.29985C4.26945 5.67436 3.06733 5.64741 3.02421 5.64575C3.0235 5.67187 3.02225 5.69714 3.02225 5.72327C3.02225 6.34741 3.25806 6.91642 3.64564 7.34666C3.64481 7.3454 4.31064 6.16586 5.62363 5.74188C5.65534 5.73133 5.68763 5.72187 5.71962 5.71271C5.65856 5.57463 5.5919 5.43627 5.52221 5.29985ZM7.06212 3.89983C6.63377 3.52266 6.07132 3.29388 5.4553 3.29388C5.25761 3.29388 5.06577 3.31777 4.882 3.36195C4.91844 3.41085 5.37545 4.01625 5.79155 4.77917C6.7096 4.4355 7.05613 3.90872 7.06212 3.89983ZM5.88547 6.11529C5.88005 6.11709 5.87463 6.11863 5.86933 6.12057C4.43379 6.6203 3.965 7.62739 3.95993 7.63839C4.37298 7.95914 4.89105 8.15266 5.45532 8.15266C5.79225 8.15266 6.1132 8.08416 6.40521 7.96012C6.36918 7.74785 6.22783 7.00381 5.88547 6.11529ZM6.81491 7.73813C7.36122 7.37 7.74921 6.78544 7.85745 6.10833C7.80737 6.09222 7.12666 5.87703 6.34134 6.00276C6.66047 6.87851 6.79014 7.59172 6.81491 7.73813ZM5.97882 5.1412C6.03529 5.25706 6.08998 5.37498 6.14047 5.49349C6.15842 5.53601 6.17595 5.57769 6.19306 5.61935C7.02888 5.51433 7.85232 5.69103 7.88752 5.69825C7.88196 5.1223 7.67564 4.59372 7.33426 4.17989C7.32966 4.1864 6.93943 4.74944 5.97882 5.1412Z" fill="white"/>
</svg>
