<svg width="14" height="15" viewBox="0 0 14 15" fill="none" xmlns="http://www.w3.org/2000/svg">
<g clip-path="url(#clip0_8_1533)">
<path fill-rule="evenodd" clip-rule="evenodd" d="M3.74907 0.958862C5.59294 0.958862 7.08773 2.45363 7.08773 4.29753V0.958862H10.4264C12.2703 0.958862 13.7651 2.45363 13.7651 4.29753C13.7651 6.14141 12.2703 7.63619 10.4264 7.63619C12.2703 7.63619 13.7651 9.13098 13.7651 10.9749C13.7651 11.8904 13.3965 12.7199 12.7997 13.3231L12.7872 13.3357L12.7761 13.3467C12.1728 13.9444 11.3427 14.3135 10.4264 14.3135C9.51631 14.3135 8.69126 13.9494 8.089 13.3588C8.08118 13.3512 8.07337 13.3434 8.06559 13.3357C8.05828 13.3284 8.051 13.321 8.04376 13.3136C7.45245 12.7113 7.08773 11.8856 7.08773 10.9749C7.08773 12.8187 5.59294 14.3135 3.74907 14.3135C1.90517 14.3135 0.4104 12.8187 0.4104 10.9749V7.63619H3.74907C1.90517 7.63619 0.4104 6.14141 0.4104 4.29753C0.4104 2.45363 1.90517 0.958862 3.74907 0.958862ZM6.42 4.29753C6.42 5.77265 5.22419 6.96846 3.74907 6.96846V1.6266C5.22419 1.6266 6.42 2.82241 6.42 4.29753ZM13.0973 10.9749C13.0973 9.49974 11.9015 8.30393 10.4264 8.30393C8.95127 8.30393 7.75546 9.49974 7.75546 10.9749H13.0973ZM1.07813 8.30393V10.9749C1.07813 12.45 2.27395 13.6458 3.74907 13.6458C5.22419 13.6458 6.42 12.45 6.42 10.9749V8.30393H1.07813ZM7.75546 6.96846V1.6266H10.4264C11.9015 1.6266 13.0973 2.82241 13.0973 4.29753C13.0973 5.77265 11.9015 6.96846 10.4264 6.96846H7.75546Z" fill="#5417D7"/>
</g>
<defs>
<clipPath id="clip0_8_1533">
<rect width="13.3547" height="13.3547" fill="white" transform="translate(0.4104 0.958862)"/>
</clipPath>
</defs>
</svg>
