<svg width="17" height="17" viewBox="0 0 17 17" fill="none" xmlns="http://www.w3.org/2000/svg">
<g clip-path="url(#clip0_8_1067)">
<path fill-rule="evenodd" clip-rule="evenodd" d="M4.75077 2.08032C6.59465 2.08032 8.08944 3.57509 8.08944 5.41899V2.08032H11.4281C13.272 2.08032 14.7668 3.57509 14.7668 5.41899C14.7668 7.26287 13.272 8.75765 11.4281 8.75765C13.272 8.75765 14.7668 10.2524 14.7668 12.0963C14.7668 13.0119 14.3982 13.8414 13.8014 14.4445L13.7889 14.4571L13.7778 14.4681C13.1745 15.0658 12.3444 15.435 11.4281 15.435C10.518 15.435 9.69297 15.0708 9.09071 14.4803C9.08289 14.4726 9.07508 14.4649 9.0673 14.4571C9.05999 14.4498 9.05271 14.4425 9.04547 14.4351C8.45416 13.8327 8.08944 13.0071 8.08944 12.0963C8.08944 13.9402 6.59465 15.435 4.75077 15.435C2.90688 15.435 1.41211 13.9402 1.41211 12.0963V8.75765H4.75077C2.90688 8.75765 1.41211 7.26287 1.41211 5.41899C1.41211 3.57509 2.90688 2.08032 4.75077 2.08032ZM7.42171 5.41899C7.42171 6.89411 6.2259 8.08992 4.75077 8.08992V2.74806C6.2259 2.74806 7.42171 3.94387 7.42171 5.41899ZM14.099 12.0963C14.099 10.6212 12.9032 9.42539 11.4281 9.42539C9.95298 9.42539 8.75717 10.6212 8.75717 12.0963H14.099ZM2.07984 9.42539V12.0963C2.07984 13.5714 3.27566 14.7673 4.75077 14.7673C6.2259 14.7673 7.42171 13.5714 7.42171 12.0963V9.42539H2.07984ZM8.75717 8.08992V2.74806H11.4281C12.9032 2.74806 14.099 3.94387 14.099 5.41899C14.099 6.89411 12.9032 8.08992 11.4281 8.08992H8.75717Z" fill="#263238"/>
</g>
<defs>
<clipPath id="clip0_8_1067">
<rect width="13.3547" height="13.3547" fill="white" transform="translate(1.41211 2.08032)"/>
</clipPath>
</defs>
</svg>
