<svg width="20" height="17" viewBox="0 0 20 17" fill="none" xmlns="http://www.w3.org/2000/svg">
<g clip-path="url(#clip0_8_1101)">
<path d="M19.0251 7.26085C19.027 7.24693 19.027 7.23285 19.0251 7.21893C19.0269 7.20759 19.0269 7.19602 19.0251 7.18465L18.889 6.20554C18.8694 6.0884 18.8169 5.97891 18.7375 5.88933L18.7141 5.86266L18.6714 5.82075L16.3165 3.83205L16.3825 3.89682C16.3285 3.83342 16.2606 3.78271 16.184 3.74843C16.1073 3.71414 16.0238 3.69715 15.9395 3.69871H15.2245C15.1082 3.69645 14.9946 3.73269 14.9019 3.80157C14.8046 3.73311 14.6875 3.69705 14.5677 3.69871H13.8527C13.7589 3.69722 13.6664 3.72003 13.5845 3.76486C13.5026 3.80968 13.4343 3.87492 13.3864 3.95396C13.3125 4.06686 13.2848 4.20288 13.3086 4.33494L13.398 4.95212C13.3388 4.91921 13.2718 4.90214 13.2037 4.9026H9.74122C9.61699 4.90336 9.49562 4.93906 9.39146 5.00546C9.29075 5.06726 9.2099 5.15576 9.15831 5.26071L8.89016 5.03594C8.78463 4.94021 8.64533 4.88832 8.50156 4.89117H3.06884C2.94417 4.89339 2.82227 4.92754 2.71522 4.99022C2.56876 5.07426 2.46143 5.21091 2.41598 5.3712L0.690567 11.0287C0.658328 11.1219 0.655156 11.2225 0.681459 11.3175C0.707761 11.4125 0.762345 11.4976 0.838239 11.5621C0.858014 11.5785 0.878779 11.5938 0.900417 11.6078C0.900417 11.6078 0.865437 11.5849 0.846007 11.5659L3.20097 13.5584C3.30059 13.6483 3.43084 13.6986 3.56624 13.6994H9.04173C9.16678 13.6962 9.28876 13.6607 9.39537 13.5965C9.45566 13.5642 9.5096 13.5216 9.55469 13.4708L9.57412 13.4441L9.60521 13.406L9.62852 13.3641L9.88501 13.5813C9.9832 13.6676 10.1106 13.7151 10.2425 13.7146H15.7296C15.8546 13.7105 15.9763 13.6751 16.0833 13.6117C16.1422 13.5775 16.1958 13.5351 16.2426 13.486L16.262 13.4593L16.2931 13.4213C16.3096 13.3971 16.324 13.3717 16.3359 13.345C16.3486 13.322 16.359 13.2977 16.367 13.2727L17.9408 8.10662V8.0609C17.9428 8.04317 17.9428 8.02529 17.9408 8.00756V7.97329C17.9427 7.96192 17.9427 7.95035 17.9408 7.93898C17.9426 7.91489 17.9426 7.8907 17.9408 7.86659H18.446C18.49 7.87055 18.5342 7.87055 18.5781 7.86659H18.6131C18.6416 7.85828 18.6689 7.84676 18.6947 7.83231H18.7336L18.8035 7.77898L18.8346 7.75611L18.889 7.68753V7.66469L18.9279 7.59991C18.9257 7.58732 18.9257 7.57442 18.9279 7.56183C18.9258 7.55564 18.9258 7.54896 18.9279 7.54277C18.9361 7.52044 18.9426 7.4975 18.9473 7.47419C18.9455 7.46668 18.9455 7.45884 18.9473 7.45133C18.9454 7.43998 18.9454 7.42839 18.9473 7.41705C18.9473 7.41705 19.0251 7.26846 19.0251 7.26085Z" fill="black"/>
<path d="M8.66085 5.32548C8.68148 5.34377 8.69589 5.36782 8.70214 5.39438C8.70842 5.42095 8.7062 5.44876 8.69584 5.47406L6.97432 11.1278C6.95264 11.1895 6.90829 11.2411 6.84996 11.2725C6.8025 11.3037 6.74756 11.322 6.69061 11.3259H1.21904C1.17232 11.3237 1.12805 11.3047 1.09469 11.2725C1.07484 11.2545 1.06092 11.2312 1.05469 11.2054C1.04845 11.1796 1.05021 11.1526 1.05971 11.1278L2.78513 5.47406C2.80501 5.41155 2.84797 5.35857 2.9056 5.32548C2.95384 5.29659 3.00851 5.27959 3.06492 5.27595H8.5365C8.58286 5.27639 8.62731 5.2941 8.66085 5.32548ZM5.80459 9.98864L6.8344 6.61318H3.95096L2.92502 9.98864H5.80459ZM13.8837 5.38262C13.9024 5.40389 13.9257 5.42076 13.952 5.43197C13.9782 5.44318 14.0067 5.44845 14.0353 5.44739H14.7464C14.7735 5.44765 14.8002 5.44114 14.824 5.42847C14.8478 5.41581 14.8679 5.3974 14.8825 5.375C14.8951 5.3575 14.904 5.3377 14.9087 5.31675C14.9133 5.29581 14.9137 5.27416 14.9096 5.25309L14.7698 4.24731C14.7564 4.20076 14.7325 4.15778 14.6998 4.12159C14.6811 4.10032 14.6578 4.08345 14.6316 4.07224C14.6053 4.06103 14.5768 4.05576 14.5483 4.05682H13.8371C13.81 4.05656 13.7833 4.06307 13.7595 4.07574C13.7357 4.08841 13.7156 4.10681 13.7011 4.12921C13.6739 4.18255 13.6622 4.21683 13.6739 4.24731L13.8177 5.25309C13.825 5.30207 13.8482 5.34745 13.8837 5.38262ZM16.1415 4.23969C16.1282 4.19314 16.1043 4.15016 16.0716 4.11397C16.0537 4.09278 16.0311 4.07592 16.0055 4.06468C15.9799 4.05345 15.952 4.04815 15.9239 4.0492H15.2089C15.1822 4.04846 15.1559 4.05479 15.1326 4.06754C15.1094 4.08028 15.0901 4.09896 15.0768 4.12159C15.0509 4.15539 15.0397 4.19784 15.0457 4.23969L15.1894 5.24547C15.1985 5.29393 15.2214 5.33886 15.2555 5.375C15.2745 5.39586 15.2979 5.41244 15.3241 5.42362C15.3502 5.4348 15.3785 5.4403 15.4071 5.43977H16.1221C16.1487 5.44011 16.1749 5.43361 16.198 5.4209C16.2212 5.4082 16.2406 5.38975 16.2542 5.36739C16.2678 5.35034 16.2772 5.33054 16.2819 5.30945C16.2866 5.28835 16.2865 5.26649 16.2814 5.24547L16.1415 4.23969ZM13.2581 5.7636L13.1881 5.26833H9.74119C9.68707 5.27125 9.63471 5.28836 9.58962 5.31786C9.561 5.33316 9.53609 5.35437 9.51663 5.38002C9.49719 5.40567 9.48365 5.43515 9.47694 5.46644L9.18936 6.41126C9.17789 6.43487 9.17396 6.46136 9.17812 6.4872C9.1823 6.51304 9.19434 6.53703 9.21268 6.55604C9.24545 6.58623 9.28822 6.60384 9.33315 6.60557H13.5223L12.4925 9.98103H8.315C8.26113 9.98223 8.20867 9.99806 8.16345 10.0267C8.10849 10.061 8.06835 10.1139 8.05075 10.1753L7.7593 11.1202C7.74978 11.1444 7.74728 11.1707 7.75208 11.1963C7.7569 11.2218 7.76878 11.2456 7.78648 11.2649C7.81824 11.2971 7.86134 11.3162 7.90696 11.3182H13.3941C13.4508 11.3135 13.5055 11.2952 13.5534 11.2649C13.6108 11.2333 13.6538 11.1816 13.6739 11.1202L15.2516 5.95409H13.4757C13.4475 5.95463 13.4195 5.94951 13.3935 5.93902C13.3674 5.92854 13.3438 5.91291 13.3242 5.89313C13.292 5.85858 13.2693 5.81666 13.2581 5.77122V5.7636Z" fill="white"/>
</g>
<defs>
<clipPath id="clip0_8_1101">
<rect width="18.3627" height="10.016" fill="white" transform="translate(0.663818 3.69861)"/>
</clipPath>
</defs>
</svg>
