<svg width="17" height="17" viewBox="0 0 17 17" fill="none" xmlns="http://www.w3.org/2000/svg">
<g clip-path="url(#clip0_8_1077)">
<path d="M15.3937 5.22257C15.3937 5.23386 15.3937 5.24797 15.3908 5.25644C15.3761 5.36651 15.3761 5.47658 15.3849 5.58948C15.3908 5.6177 15.3967 5.64592 15.4202 5.6685C15.4584 5.71083 15.5172 5.70237 15.5408 5.65157C15.5525 5.62617 15.5525 5.60076 15.5467 5.57536C15.5172 5.46811 15.5114 5.35522 15.5084 5.24515C15.5084 5.23951 15.5084 5.23104 15.5084 5.22257C15.5408 5.21975 15.5702 5.21693 15.5966 5.21693C15.6172 5.21411 15.6349 5.21128 15.6496 5.20281C15.6937 5.18024 15.6937 5.13226 15.6466 5.10968C15.629 5.10121 15.6055 5.09839 15.5849 5.09839C15.5114 5.10121 15.4379 5.10121 15.3643 5.10121C15.3379 5.10121 15.3114 5.10404 15.2849 5.10686C15.2702 5.10968 15.2526 5.10968 15.2408 5.11815C15.2202 5.12661 15.2085 5.14072 15.2085 5.16048C15.2114 5.18024 15.2202 5.19153 15.2408 5.19999C15.2526 5.20846 15.2673 5.21128 15.282 5.21128C15.3173 5.21411 15.3555 5.21975 15.3937 5.22257ZM16.2024 5.3524C16.2024 5.35522 16.2053 5.35804 16.2053 5.35804C16.2171 5.43425 16.2289 5.50763 16.2377 5.58101C16.2407 5.60641 16.2436 5.62899 16.2612 5.64874C16.2995 5.69672 16.3583 5.69108 16.3847 5.64028C16.3965 5.61488 16.3994 5.58948 16.3936 5.56125C16.3759 5.47658 16.3671 5.39191 16.3494 5.31006C16.3377 5.25926 16.323 5.21128 16.3083 5.16613C16.2995 5.1379 16.2789 5.11814 16.2436 5.11532C16.2083 5.10968 16.1818 5.12661 16.1671 5.15201C16.1495 5.17459 16.1348 5.19717 16.123 5.22257C16.1024 5.26773 16.0848 5.31289 16.0613 5.35522C16.0583 5.36651 16.0554 5.37498 16.0495 5.38344C16.0466 5.3778 16.0436 5.37498 16.0436 5.37498C16.0054 5.30442 15.9701 5.23386 15.9319 5.16613C15.926 5.16048 15.9231 5.15484 15.9201 5.14919C15.9025 5.12379 15.8819 5.10968 15.8495 5.10968C15.8201 5.1125 15.7966 5.12944 15.7819 5.15484C15.776 5.16613 15.776 5.17459 15.7731 5.18588C15.7613 5.2762 15.7466 5.36651 15.7349 5.45683C15.729 5.50763 15.726 5.55843 15.726 5.60923C15.7231 5.62052 15.726 5.63463 15.7319 5.64592C15.7378 5.6685 15.7554 5.68261 15.779 5.68543C15.8084 5.68826 15.8289 5.67979 15.8378 5.65721C15.8466 5.64028 15.8495 5.62617 15.8525 5.61205C15.8643 5.56125 15.8731 5.51327 15.8819 5.46529C15.8878 5.43707 15.8907 5.41449 15.8995 5.38344C15.9054 5.39473 15.9113 5.4032 15.9172 5.41167C15.9436 5.44554 15.9701 5.4794 16.0025 5.50763C16.0348 5.5302 16.0613 5.52738 16.0877 5.50198C16.0936 5.49634 16.0966 5.49352 16.1024 5.48787C16.1289 5.44836 16.1613 5.40885 16.1877 5.36933C16.1936 5.36369 16.1965 5.35804 16.2024 5.3524Z" fill="#3A3B7B"/>
<path d="M9.42701 5.27798C9.40656 5.33162 9.40266 5.37026 9.4121 5.40238C9.42253 5.44606 9.44958 5.46035 9.4863 5.44925C9.8317 5.36727 10.5891 5.59995 10.8695 5.6648C10.9356 5.67842 10.9894 5.59648 10.9443 5.52302C10.8784 5.45188 10.1214 5.1473 9.83253 5.13069C9.7193 5.12455 9.51688 5.09668 9.42701 5.27798Z" fill="#3A3B7B"/>
<path d="M12.387 4.29201C12.4238 4.3124 12.4444 4.33185 12.4545 4.35359C12.4697 4.3821 12.4617 4.40182 12.4363 4.41189C12.208 4.51883 11.9041 4.97927 11.7815 5.13806C11.7518 5.17459 11.6832 5.15337 11.6729 5.09329C11.675 5.02537 11.9443 4.5257 12.0946 4.3896C12.1537 4.33647 12.2512 4.23221 12.387 4.29201Z" fill="#3A3B7B"/>
<path d="M10.5687 4.06543C10.613 4.03344 10.6589 4.02223 10.6824 4.04302C11.0269 4.32577 11.2095 4.77353 11.3226 5.18345C11.3269 5.193 11.3272 5.2067 11.3238 5.221C11.3224 5.23322 11.3131 5.24613 11.2983 5.25612C11.2825 5.26714 11.2689 5.2705 11.2625 5.261C11.1115 5.06391 10.2492 4.29706 10.5687 4.06543Z" fill="#3A3B7B"/>
<path d="M3.27402 8.96762C3.35658 8.90863 3.44634 8.85951 3.54132 8.8214C3.64069 8.79414 3.74661 8.79865 3.84307 8.83429C3.9395 8.86994 4.02126 8.93475 4.07591 9.01894C4.1248 9.10291 4.14392 9.19986 4.13043 9.29519C4.11693 9.39049 4.07154 9.47901 4.00106 9.54743C3.94643 9.60288 3.8844 9.65118 3.81664 9.6911C3.5146 9.87838 3.20986 10.0554 2.90514 10.2427C2.84279 10.2895 2.77665 10.3316 2.70734 10.3684C2.60192 10.4188 2.48144 10.4324 2.36674 10.4066C2.25204 10.3808 2.15032 10.3174 2.07919 10.2273C2.02601 10.1635 1.98113 10.0937 1.94554 10.0195C1.65685 9.43712 1.35748 8.85731 1.07949 8.26468C0.951183 8.00815 0.846937 7.7131 0.745363 7.42834C0.701418 7.3456 0.692836 7.24968 0.721446 7.16096C0.750055 7.07224 0.813599 6.99773 0.89856 6.95328C0.983521 6.90883 1.0832 6.89796 1.17639 6.92295C1.26958 6.94795 1.34893 7.00686 1.39757 7.08713C1.54708 7.27783 1.67943 7.48038 1.79318 7.6926C2.08186 8.20568 2.35718 8.71877 2.63517 9.21648C2.65136 9.24398 2.66921 9.27052 2.68863 9.296C2.89787 9.21157 3.09466 9.10117 3.27402 8.96762Z" fill="#3A3B7B"/>
<path d="M6.25879 8.78863C5.59857 9.53004 4.49195 9.34276 3.93597 8.38841C3.54036 7.71112 3.47086 6.59257 4.33158 5.88707C4.51537 5.73936 4.73515 5.63875 4.97041 5.5946C5.25887 5.55491 5.55302 5.60375 5.81081 5.73415C6.06861 5.86455 6.27686 6.06982 6.40582 6.32064C6.87626 7.14159 6.80944 8.1883 6.25879 8.78863ZM5.99149 7.05949C5.92135 6.85775 5.78064 6.68552 5.59322 6.57204C5.48716 6.49949 5.35829 6.46422 5.22832 6.47216C5.09832 6.48011 4.97516 6.53078 4.87953 6.61565C4.49731 6.94148 4.4171 7.7137 4.69509 8.17292C4.73053 8.2478 4.78256 8.31434 4.84759 8.3679C4.91262 8.42146 4.98906 8.46074 5.07156 8.48296C5.15405 8.50521 5.2406 8.50988 5.32518 8.49665C5.40976 8.4834 5.49028 8.4526 5.56116 8.40637C5.76836 8.25218 5.92037 8.03987 5.99604 7.79896C6.07175 7.55803 6.06735 7.30047 5.98349 7.06207L5.99149 7.05949Z" fill="#3A3B7B"/>
<path d="M8.9531 7.38269C8.88551 7.39664 8.81568 7.39748 8.74774 7.38513C8.67982 7.37279 8.61512 7.34755 8.55751 7.31086C8.50709 7.28318 8.4637 7.24514 8.43043 7.19943C8.39719 7.15373 8.3749 7.10153 8.3652 7.04656C8.35547 6.99162 8.35858 6.93529 8.37425 6.88162C8.38994 6.82795 8.41785 6.77828 8.45594 6.73619C8.52229 6.6516 8.61649 6.59104 8.72324 6.56431C9.00194 6.48667 9.28886 6.43934 9.57859 6.42321C9.64226 6.4161 9.70675 6.42127 9.76828 6.43842C9.82984 6.45558 9.88718 6.48434 9.93699 6.52307C9.98678 6.56178 10.028 6.60966 10.0583 6.66388C10.0885 6.7181 10.1072 6.77758 10.1132 6.83882C10.1967 7.13962 10.2059 7.45502 10.1399 7.75983C9.89935 8.74496 9.07072 9.0836 8.14051 8.76805C7.8794 8.68368 7.65046 8.52648 7.48296 8.31653C7.25956 8.06369 7.10116 7.76405 7.02053 7.4417C6.95521 7.15465 6.96236 6.85679 7.04142 6.57295C7.12046 6.28911 7.26911 6.02753 7.47494 5.81006C7.67028 5.57369 7.92381 5.38767 8.2127 5.26874C8.39523 5.17217 8.60884 5.14471 8.81145 5.19178C8.8574 5.20398 8.89912 5.22777 8.93227 5.26067C8.96543 5.29357 8.98881 5.33438 8.99999 5.37888C9.01118 5.42337 9.00975 5.46993 8.99587 5.51372C8.98197 5.55751 8.95615 5.59693 8.92104 5.62791C8.85429 5.6859 8.78177 5.73746 8.70452 5.78184C8.46688 5.92708 8.26008 6.11425 8.09507 6.33341C7.98691 6.47523 7.91242 6.63809 7.87687 6.8105C7.84129 6.9829 7.84553 7.1607 7.88927 7.33139C7.94988 7.56412 8.0844 7.77301 8.27416 7.92913C8.86222 8.44224 9.6267 7.94709 9.49305 7.24672C9.29794 7.29291 9.12685 7.34165 8.9531 7.38269Z" fill="#3A3B7B"/>
<path d="M12.5458 8.82962C11.6771 9.34273 10.6881 8.82962 10.4716 7.75213C10.3139 6.98249 10.6132 5.90498 11.6611 5.4945C11.884 5.40905 12.1258 5.37905 12.364 5.40728C12.6503 5.45757 12.9129 5.59282 13.1148 5.79396C13.3166 5.9951 13.4477 6.25197 13.4894 6.5284C13.6658 7.44426 13.2648 8.42171 12.5458 8.82962ZM12.8479 7.10305C12.8476 6.88994 12.769 6.68371 12.626 6.52069C12.5495 6.41987 12.439 6.34763 12.3132 6.31627C12.1875 6.28493 12.0543 6.29642 11.9364 6.34881C11.4659 6.54378 11.1345 7.25185 11.2547 7.77266C11.2639 7.85439 11.2916 7.93321 11.3358 8.0036C11.3801 8.07399 11.4398 8.13426 11.5108 8.18021C11.5818 8.22614 11.6625 8.25663 11.747 8.26955C11.8316 8.28245 11.9181 8.27747 12.0005 8.25496C12.2492 8.17158 12.4645 8.01577 12.6164 7.80925C12.7683 7.60274 12.8492 7.35584 12.8479 7.10305Z" fill="#3A3B7B"/>
<path d="M14.3677 9.0452C14.3546 9.13909 14.3032 9.22414 14.2247 9.28164C14.1463 9.33912 14.0473 9.36436 13.9494 9.35177C13.8516 9.33918 13.763 9.2898 13.7031 9.2145C13.6432 9.13922 13.6169 9.04416 13.63 8.95027C13.6431 8.85637 13.6946 8.77133 13.773 8.71383C13.8515 8.65633 13.9505 8.63111 14.0483 8.6437C14.1462 8.65628 14.2348 8.70564 14.2947 8.78094C14.3546 8.85624 14.3809 8.9513 14.3677 9.0452ZM14.1352 5.58436C14.186 5.50984 14.2606 5.45309 14.3478 5.42258C14.435 5.39206 14.5301 5.38942 14.619 5.41504C14.7094 5.43674 14.7892 5.48757 14.8452 5.55903C14.9011 5.63048 14.9298 5.71822 14.9264 5.80756C14.9146 5.95084 14.8923 6.09316 14.8596 6.23342C14.7714 6.70804 14.6858 7.18264 14.5923 7.65214C14.5495 7.83942 14.4934 8.019 14.4319 8.20884C14.4105 8.26818 14.3748 8.32181 14.3277 8.36534C14.2984 8.39808 14.261 8.42319 14.2189 8.43835C14.1768 8.45353 14.1314 8.45826 14.0869 8.45212C14.0424 8.44598 14.0002 8.42917 13.9642 8.40325C13.9283 8.37731 13.8998 8.34309 13.8813 8.30377C13.8495 8.23322 13.8322 8.15741 13.8305 8.08057C13.8305 7.76245 13.8305 7.44177 13.8519 7.12107C13.8882 6.66342 13.9597 6.20895 14.0657 5.76138C14.0782 5.70141 14.1017 5.64407 14.1352 5.59206V5.58436Z" fill="#3A3B7B"/>
<path fill-rule="evenodd" clip-rule="evenodd" d="M2.14479 11.1067C2.11323 11.1744 2.10457 11.2497 2.12 11.3223C2.13026 11.4179 2.15279 11.512 2.18709 11.6023C2.22991 11.713 2.27783 11.8224 2.33691 11.9572C2.35049 11.9883 2.36469 12.0207 2.37955 12.0547C2.45923 12.2374 2.55919 12.4709 2.69254 12.8088C2.73028 12.9048 2.7638 13.0015 2.79755 13.099C2.81118 13.1383 2.82487 13.1778 2.83887 13.2174C2.88908 13.3582 2.97546 13.4846 3.08997 13.5848C3.13859 13.6399 3.20308 13.68 3.2754 13.7001C3.34913 13.7206 3.42754 13.7193 3.50049 13.6964C3.57343 13.6735 3.6375 13.63 3.68437 13.5717C3.73032 13.5145 3.75765 13.4456 3.76296 13.3736C3.79278 13.2333 3.7826 13.0879 3.73346 12.9527C3.65548 12.7282 3.56664 12.5033 3.46419 12.2834L3.46372 12.2824C3.29519 11.9384 3.12388 11.5967 2.94447 11.2549L2.94313 11.2525C2.8906 11.1634 2.82235 11.0838 2.74142 11.0172C2.68889 10.9578 2.61642 10.9177 2.53639 10.9039C2.45466 10.8898 2.37036 10.904 2.29855 10.944C2.23062 10.9812 2.17677 11.0382 2.14479 11.1067Z" fill="#3A3B7B"/>
<path fill-rule="evenodd" clip-rule="evenodd" d="M4.71868 10.2596C4.45443 10.1939 4.17845 10.1843 3.90999 10.2315C3.70205 10.2512 3.49755 10.2972 3.35554 10.3884C3.28331 10.4348 3.22491 10.4944 3.19243 10.5701C3.15977 10.6463 3.1556 10.7334 3.18237 10.8304C3.23124 11.0082 3.2947 11.181 3.35793 11.3533L3.36818 11.3812L3.36843 11.3818C3.55883 11.8823 3.75106 12.3811 3.94503 12.8781C3.96765 12.9565 3.99964 13.032 4.04035 13.1033L4.04111 13.1046C4.09489 13.1932 4.16386 13.2724 4.24512 13.3389C4.28576 13.3755 4.33602 13.4008 4.39052 13.4121C4.44555 13.4235 4.50278 13.4202 4.55598 13.4025C4.60919 13.3848 4.65631 13.3535 4.69222 13.3118C4.72755 13.2709 4.75069 13.2215 4.75918 13.169C4.79424 13.0264 4.78301 12.8769 4.72697 12.7405C4.70949 12.6947 4.69577 12.6478 4.68131 12.5984C4.67649 12.5819 4.6716 12.5652 4.66645 12.5481C5.11045 12.3816 5.58289 12.1576 5.74902 11.6365C5.81407 11.4564 5.8195 11.2615 5.76453 11.0783C5.70952 10.8949 5.59665 10.7324 5.44148 10.6131C5.23029 10.4461 4.9836 10.3254 4.71868 10.2596ZM3.98621 10.8987C3.99495 10.8963 4.00376 10.894 4.01259 10.8919C4.30166 10.8483 4.5974 10.9064 4.84538 11.0555C4.95466 11.1285 4.99942 11.2095 5.00711 11.2875C5.01505 11.3678 4.98463 11.4548 4.92352 11.5385C4.80805 11.6965 4.59733 11.8229 4.40699 11.8465C4.26823 11.5398 4.12732 11.2207 3.98621 10.8987Z" fill="#3A3B7B"/>
<path d="M6.48033 9.69812C6.79501 9.55863 7.18482 9.53454 7.48984 9.63262C7.56666 9.65409 7.63331 9.70054 7.67839 9.76403C7.72318 9.82712 7.74385 9.90314 7.73694 9.97915C7.73649 10.0285 7.72387 10.077 7.70013 10.1208C7.67597 10.1654 7.64098 10.2037 7.59811 10.2326C7.55525 10.2614 7.50578 10.28 7.45389 10.2866C7.40197 10.2933 7.34918 10.2878 7.29993 10.2707L7.29618 10.2694L7.29266 10.2676C7.26747 10.255 7.2407 10.2455 7.21302 10.2392L7.21127 10.2389C6.9967 10.1842 6.79429 10.2748 6.72036 10.3862C6.6851 10.4393 6.68073 10.4929 6.7101 10.5416C6.74155 10.5939 6.81868 10.6525 6.97477 10.6942C7.0177 10.7055 7.0617 10.7164 7.10634 10.7275C7.22976 10.7582 7.35803 10.7901 7.48206 10.8342L7.48253 10.8344C8.05474 11.0434 8.26782 11.4761 8.19487 11.8832C8.12271 12.2857 7.77245 12.6521 7.24572 12.7385C7.05406 12.7792 6.8546 12.7713 6.66708 12.7154C6.47909 12.6594 6.30964 12.5571 6.17557 12.4188L6.17207 12.4151C6.12975 12.363 6.10128 12.3018 6.08866 12.2368C6.07705 12.1782 6.08317 12.1176 6.10626 12.0621C6.12921 12.007 6.16804 11.9593 6.21814 11.9246C6.27107 11.8852 6.33486 11.8616 6.40164 11.8566C6.4682 11.8517 6.5348 11.8656 6.59324 11.8966C6.65161 11.9236 6.70591 11.9582 6.75464 11.9992L6.75556 12C6.84177 12.0756 6.94608 12.0954 7.0461 12.0771C7.14758 12.0586 7.24301 12.0009 7.30439 11.9245C7.36536 11.8485 7.38984 11.7582 7.36079 11.6706C7.33156 11.5823 7.24366 11.4834 7.05054 11.4008C7.00006 11.3802 6.94772 11.3636 6.89327 11.3475C6.87858 11.3431 6.86365 11.3388 6.84854 11.3344C6.80828 11.3226 6.76686 11.3106 6.72624 11.2972C6.69826 11.2881 6.67051 11.2794 6.64303 11.2708C6.56791 11.2473 6.49467 11.2244 6.42419 11.1937C6.2708 11.1436 6.13827 11.0474 6.04634 10.9192C5.95403 10.7906 5.90758 10.6368 5.9139 10.4807C5.91439 10.1004 6.16396 9.83838 6.48033 9.69812Z" fill="#3A3B7B"/>
<path d="M10.4699 9.65752C10.4089 9.62892 10.3414 9.61534 10.2736 9.618C10.2058 9.62069 10.1397 9.63952 10.0813 9.67286C10.0233 9.70596 9.97477 9.7523 9.93998 9.80777C9.90808 9.85449 9.886 9.90673 9.875 9.96159C9.86399 10.0164 9.86426 10.0727 9.87576 10.1274C9.88712 10.1977 9.89972 10.266 9.91216 10.3334C9.93276 10.445 9.9528 10.554 9.96603 10.6652L9.96652 10.668C9.99663 10.8424 10.0124 11.0187 10.0138 11.1954L10.0139 11.1979C10.0242 11.3887 9.95648 11.5758 9.82523 11.7195L9.82315 11.7221C9.78044 11.7746 9.72335 11.8147 9.65823 11.8379C9.59313 11.861 9.5226 11.8663 9.45453 11.8532C9.38645 11.8401 9.32352 11.8091 9.27277 11.7636C9.22202 11.7181 9.18541 11.6598 9.16714 11.5955C9.12814 11.4601 9.10556 11.3207 9.09983 11.1803L9.16645 10.1622C9.16743 10.149 9.16855 10.1353 9.1697 10.1215C9.17223 10.0906 9.17483 10.0591 9.17591 10.0298C9.17748 9.98654 9.17613 9.94209 9.16564 9.90002C9.1549 9.85702 9.13448 9.81611 9.09826 9.78128C9.06239 9.7468 9.01397 9.72136 8.95304 9.70404C8.84286 9.67343 8.7497 9.6744 8.67207 9.70602C8.59439 9.73764 8.54118 9.79635 8.50352 9.86417C8.46615 9.93142 8.44214 10.011 8.42398 10.0908C8.41051 10.1499 8.39968 10.2121 8.38939 10.2712C8.38583 10.2916 8.38235 10.3116 8.37884 10.331L8.37875 10.3316C8.32369 10.6558 8.3073 10.9851 8.3299 11.3129C8.33411 11.4901 8.3726 11.6649 8.44344 11.8286C8.52336 12.0397 8.6681 12.2227 8.85858 12.3533C9.04945 12.4842 9.27723 12.5563 9.51175 12.5601C9.74628 12.5639 9.97648 12.4992 10.1719 12.3746C10.3669 12.2502 10.5181 12.072 10.6054 11.8634C10.7275 11.5977 10.7848 11.3087 10.773 11.0185C10.7658 10.8066 10.7538 10.5931 10.7419 10.3807C10.736 10.2765 10.7302 10.1726 10.7249 10.0692C10.7223 9.96561 10.6867 9.86525 10.6229 9.78161C10.5834 9.72873 10.5308 9.68609 10.4699 9.65752Z" fill="#3A3B7B"/>
<path d="M12.6298 11.2539C12.6236 11.2614 12.6171 11.2693 12.6102 11.2774C12.5606 11.0026 12.5146 10.7279 12.4685 10.4527C12.452 10.354 12.4354 10.2549 12.4187 10.156L12.4168 10.145L12.4107 10.1355C12.3992 10.1176 12.3981 10.1 12.3981 10.0625V10.0581L12.3974 10.0539C12.3849 9.97642 12.3484 9.90436 12.2927 9.8471C12.2371 9.79 12.1649 9.75026 12.0855 9.73301C12.0062 9.71424 11.9229 9.71837 11.846 9.74491C11.7693 9.77138 11.7025 9.81896 11.6539 9.88167C11.6134 9.9298 11.5803 9.98318 11.5554 10.0402C11.499 10.1631 11.4422 10.2863 11.3851 10.4098L11.3842 10.4119C11.2418 10.7203 11.0985 11.0307 10.9593 11.3436L10.9589 11.3446C10.8734 11.5474 10.8029 11.7612 10.7326 11.9743C10.7186 12.0168 10.7046 12.0593 10.6904 12.1017C10.665 12.169 10.654 12.2404 10.6578 12.3118C10.6531 12.3757 10.6691 12.4395 10.7035 12.4945C10.7385 12.5506 10.7911 12.5948 10.8536 12.6207C10.9199 12.6486 10.9941 12.6546 11.0643 12.6376C11.1344 12.6206 11.1966 12.5818 11.2412 12.5272C11.2981 12.46 11.3471 12.3867 11.387 12.309C11.5049 12.0776 11.6176 11.8433 11.7298 11.61C11.7732 11.5198 11.8153 11.439 11.8633 11.351C11.8666 11.3619 11.8699 11.3725 11.8734 11.3831C11.9237 11.5955 12.0086 11.799 12.1249 11.9861C12.1469 12.0257 12.1776 12.0604 12.2148 12.0876C12.2524 12.1152 12.2959 12.1346 12.3422 12.1444C12.3884 12.1543 12.4363 12.1543 12.4826 12.1446C12.5288 12.1348 12.5724 12.1154 12.6101 12.088L12.6847 12.0344L13.2635 11.5664L13.2293 11.7758C13.1823 12.0636 13.1357 12.349 13.0861 12.6345C13.0537 12.761 13.0538 12.8932 13.0863 13.0196C13.1004 13.0908 13.1362 13.1564 13.1893 13.2079C13.2428 13.2599 13.3114 13.2951 13.3861 13.3092C13.4608 13.3233 13.5382 13.3155 13.6082 13.2868C13.6772 13.2586 13.7359 13.2114 13.7769 13.1512C13.8723 13.0375 13.9317 12.8999 13.948 12.7548C13.9726 12.5498 14.0004 12.342 14.0281 12.1343C14.0601 11.8948 14.0921 11.6555 14.1191 11.4207L14.1192 11.42C14.1452 11.163 14.1578 10.9049 14.1569 10.6467C14.1626 10.5651 14.1415 10.4838 14.0964 10.4144C14.0511 10.3447 13.9841 10.2905 13.9049 10.2594C13.8224 10.2235 13.7302 10.2139 13.6417 10.2321C13.5537 10.2501 13.4741 10.2946 13.4144 10.359C13.3076 10.4538 13.2075 10.5552 13.1146 10.6626L13.1139 10.6634C13.0125 10.7847 12.9118 10.9084 12.8117 11.0313C12.7508 11.106 12.6901 11.1805 12.6298 11.2539Z" fill="#3A3B7B"/>
</g>
<defs>
<clipPath id="clip0_8_1077">
<rect width="15.6917" height="9.68213" fill="white" transform="translate(0.704834 4.03247)"/>
</clipPath>
</defs>
</svg>
