<svg width="17" height="17" viewBox="0 0 17 17" fill="none" xmlns="http://www.w3.org/2000/svg">
<g clip-path="url(#clip0_8_1093)">
<path d="M14.9709 4.64803C14.9709 4.80361 15.0986 4.92973 15.2561 4.92973H15.5413C15.6988 4.92973 15.8265 4.80361 15.8265 4.64803C15.8265 4.49245 15.6988 4.36633 15.5413 4.36633H15.2561C15.0986 4.36633 14.9709 4.49245 14.9709 4.64803Z" fill="#212326"/>
<path d="M6.70078 13.3807H8.08613L7.68282 12.9823C7.57587 12.8767 7.43079 12.8173 7.27953 12.8173H6.70078C4.49579 12.8173 2.70829 11.0516 2.70829 8.87353C2.70829 6.69543 4.49579 4.92974 6.70078 4.92973H11.2636C13.4686 4.92973 15.2561 6.69543 15.2561 8.87353C15.2561 11.0516 13.4686 12.8173 11.2636 12.8173H9.55676C9.32985 12.8173 9.11225 12.7283 8.95179 12.5698L8.47931 12.1031C8.21191 11.8389 7.8492 11.6905 7.47104 11.6905H6.70078C5.12578 11.6905 3.84901 10.4293 3.84901 8.87353C3.84901 7.31774 5.12578 6.05653 6.70078 6.05653H11.2636C12.8386 6.05653 14.1154 7.31774 14.1154 8.87353C14.1154 10.4293 12.8386 11.6905 11.2636 11.6905H10.1677C9.94074 11.6905 9.72314 11.6015 9.56269 11.443L9.09018 10.9763C8.82278 10.7121 8.4601 10.5637 8.08193 10.5637H6.70078C5.7558 10.5637 4.98972 9.80699 4.98972 8.87353C4.98972 7.94007 5.7558 7.18333 6.70078 7.18333H11.2636C12.2086 7.18333 12.9747 7.94007 12.9747 8.87353C12.9747 9.79561 12.2272 10.5453 11.2981 10.5634L11.2979 10.5637H10.8806C10.6537 10.5637 10.4361 10.4747 10.2756 10.3162L9.80313 9.84948C9.58372 9.63272 9.30017 9.49392 8.99653 9.45108L8.9822 9.43693H6.70078C6.38579 9.43693 6.13043 9.18469 6.13043 8.87353C6.13043 8.56238 6.38579 8.31013 6.70078 8.31013H11.2636C11.5786 8.31013 11.834 8.56238 11.834 8.87353C11.834 9.18469 11.5786 9.43693 11.2636 9.43693H10.1229L10.5262 9.83532C10.6332 9.94097 10.7783 10.0003 10.9295 10.0003H11.2636C11.8936 10.0003 12.4043 9.49584 12.4043 8.87353C12.4043 8.25122 11.8936 7.74673 11.2636 7.74673H6.70078C6.07079 7.74673 5.56007 8.25122 5.56007 8.87353C5.56007 9.49584 6.07079 10.0003 6.70078 10.0003H8.79488C9.02179 10.0003 9.23939 10.0894 9.39984 10.2478L9.87235 10.7146C10.1398 10.9787 10.5024 11.1271 10.8806 11.1271H11.4062V11.1228C12.5998 11.0501 13.545 10.0708 13.545 8.87353C13.545 7.62891 12.5236 6.61993 11.2636 6.61993H6.70078C5.4408 6.61993 4.41936 7.62891 4.41936 8.87353C4.41936 10.1182 5.4408 11.1271 6.70078 11.1271H8.08193C8.30884 11.1271 8.52644 11.2162 8.6869 11.3746L9.1594 11.8414C9.42681 12.1055 9.78948 12.2539 10.1677 12.2539H11.2636C13.1536 12.2539 14.6858 10.7405 14.6858 8.87353C14.6858 7.00658 13.1536 5.49313 11.2636 5.49313H6.70078C4.81078 5.49313 3.27865 7.00658 3.27865 8.87353C3.27865 10.7405 4.81078 12.2539 6.70078 12.2539H7.47104C7.69795 12.2539 7.91555 12.343 8.076 12.5014L8.54851 12.9682C8.81591 13.2323 9.17859 13.3807 9.55676 13.3807H11.2636C13.7836 13.3807 15.8265 11.3628 15.8265 8.87353C15.8265 6.38427 13.7836 4.36633 11.2636 4.36633L6.70078 4.36633C4.18079 4.36633 2.13794 6.38428 2.13794 8.87353C2.13794 11.3628 4.1808 13.3807 6.70078 13.3807Z" fill="#212326"/>
</g>
<defs>
<clipPath id="clip0_8_1093">
<rect width="13.6885" height="9.0144" fill="white" transform="translate(2.13794 4.36633)"/>
</clipPath>
</defs>
</svg>
