<svg width="20" height="17" viewBox="0 0 20 17" fill="none" xmlns="http://www.w3.org/2000/svg">
<g clip-path="url(#clip0_8_1073)">
<path d="M19.299 7.26085C19.3009 7.24693 19.3009 7.23285 19.299 7.21893C19.3008 7.20759 19.3008 7.19602 19.299 7.18465L19.1629 6.20554C19.1433 6.0884 19.0908 5.97891 19.0114 5.88933L18.9881 5.86266L18.9453 5.82075L16.5904 3.83205L16.6564 3.89682C16.6024 3.83342 16.5346 3.78271 16.4579 3.74843C16.3812 3.71414 16.2977 3.69715 16.2134 3.69871H15.4984C15.3821 3.69645 15.2685 3.73269 15.1758 3.80157C15.0785 3.73311 14.9614 3.69705 14.8416 3.69871H14.1266C14.0328 3.69722 13.9403 3.72003 13.8584 3.76486C13.7765 3.80968 13.7082 3.87492 13.6603 3.95396C13.5864 4.06686 13.5587 4.20288 13.5826 4.33494L13.6719 4.95212C13.6127 4.91921 13.5457 4.90214 13.4776 4.9026H10.0151C9.89092 4.90336 9.76955 4.93906 9.66539 5.00546C9.56468 5.06726 9.48383 5.15576 9.43223 5.26071L9.16409 5.03594C9.05855 4.94021 8.91925 4.88832 8.77549 4.89117H3.34276C3.21809 4.89339 3.09619 4.92754 2.98914 4.99022C2.84268 5.07426 2.73535 5.21091 2.68991 5.3712L0.964492 11.0287C0.932254 11.1219 0.929082 11.2225 0.955384 11.3175C0.981686 11.4125 1.03627 11.4976 1.11216 11.5621C1.13194 11.5785 1.1527 11.5938 1.17434 11.6078C1.17434 11.6078 1.13936 11.5849 1.11993 11.5659L3.4749 13.5584C3.57452 13.6483 3.70477 13.6986 3.84017 13.6994H9.31566C9.4407 13.6962 9.56269 13.6607 9.66929 13.5965C9.72958 13.5642 9.78352 13.5216 9.82861 13.4708L9.84805 13.4441L9.87914 13.406L9.90245 13.3641L10.1589 13.5813C10.2571 13.6676 10.3845 13.7151 10.5164 13.7146H16.0036C16.1285 13.7105 16.2502 13.6751 16.3572 13.6117C16.4161 13.5775 16.4698 13.5351 16.5165 13.486L16.536 13.4593L16.567 13.4213C16.5836 13.3971 16.5979 13.3717 16.6098 13.345C16.6225 13.322 16.6329 13.2977 16.6409 13.2727L18.2147 8.10662V8.0609C18.2167 8.04317 18.2167 8.02529 18.2147 8.00756V7.97329C18.2166 7.96192 18.2166 7.95035 18.2147 7.93898C18.2165 7.91489 18.2165 7.8907 18.2147 7.86659H18.7199C18.7639 7.87055 18.8081 7.87055 18.852 7.86659H18.887C18.9155 7.85828 18.9429 7.84676 18.9687 7.83231H19.0075L19.0775 7.77898L19.1085 7.75611L19.1629 7.68753V7.66469L19.2018 7.59991C19.1996 7.58732 19.1996 7.57442 19.2018 7.56183C19.1997 7.55564 19.1997 7.54896 19.2018 7.54277C19.2101 7.52044 19.2166 7.4975 19.2212 7.47419C19.2194 7.46668 19.2194 7.45884 19.2212 7.45133C19.2194 7.43998 19.2194 7.42839 19.2212 7.41705C19.2212 7.41705 19.299 7.26846 19.299 7.26085Z" fill="black"/>
<path d="M8.93478 5.32548C8.95541 5.34377 8.96982 5.36782 8.97607 5.39438C8.98234 5.42095 8.98012 5.44876 8.96977 5.47406L7.24824 11.1278C7.22657 11.1895 7.18221 11.2411 7.12389 11.2725C7.07643 11.3037 7.02149 11.322 6.96454 11.3259H1.49297C1.44624 11.3237 1.40197 11.3047 1.36861 11.2725C1.34877 11.2545 1.33484 11.2312 1.32861 11.2054C1.32238 11.1796 1.32414 11.1526 1.33364 11.1278L3.05905 5.47406C3.07894 5.41155 3.12189 5.35857 3.17952 5.32548C3.22777 5.29659 3.28244 5.27959 3.33885 5.27595H8.81042C8.85679 5.27639 8.90124 5.2941 8.93478 5.32548ZM6.07852 9.98864L7.10833 6.61318H4.22488L3.19895 9.98864H6.07852ZM14.1577 5.38262C14.1763 5.40389 14.1997 5.42076 14.2259 5.43197C14.2521 5.44318 14.2806 5.44845 14.3092 5.44739H15.0204C15.0475 5.44765 15.0741 5.44114 15.0979 5.42847C15.1217 5.41581 15.1418 5.3974 15.1564 5.375C15.169 5.3575 15.1779 5.3377 15.1826 5.31675C15.1873 5.29581 15.1876 5.27416 15.1836 5.25309L15.0437 4.24731C15.0304 4.20076 15.0064 4.15778 14.9737 4.12159C14.9551 4.10032 14.9317 4.08345 14.9055 4.07224C14.8793 4.06103 14.8508 4.05576 14.8222 4.05682H14.111C14.0839 4.05656 14.0572 4.06307 14.0335 4.07574C14.0097 4.08841 13.9895 4.10681 13.975 4.12921C13.9478 4.18255 13.9362 4.21683 13.9478 4.24731L14.0916 5.25309C14.099 5.30207 14.1221 5.34745 14.1577 5.38262ZM16.4155 4.23969C16.4021 4.19314 16.3782 4.15016 16.3455 4.11397C16.3276 4.09278 16.305 4.07592 16.2794 4.06468C16.2538 4.05345 16.2259 4.04815 16.1978 4.0492H15.4828C15.4562 4.04846 15.4298 4.05479 15.4066 4.06754C15.3833 4.08028 15.364 4.09896 15.3507 4.12159C15.3248 4.15539 15.3136 4.19784 15.3196 4.23969L15.4634 5.24547C15.4724 5.29393 15.4953 5.33886 15.5294 5.375C15.5484 5.39586 15.5718 5.41244 15.598 5.42362C15.6242 5.4348 15.6525 5.4403 15.681 5.43977H16.396C16.4226 5.44011 16.4488 5.43361 16.472 5.4209C16.4952 5.4082 16.5146 5.38975 16.5282 5.36739C16.5417 5.35034 16.5511 5.33054 16.5558 5.30945C16.5606 5.28835 16.5604 5.26649 16.5554 5.24547L16.4155 4.23969ZM13.532 5.7636L13.462 5.26833H10.0151C9.96099 5.27125 9.90864 5.28836 9.86355 5.31786C9.83493 5.33316 9.81001 5.35437 9.79055 5.38002C9.77112 5.40567 9.75758 5.43515 9.75087 5.46644L9.46329 6.41126C9.45181 6.43487 9.44789 6.46136 9.45204 6.4872C9.45623 6.51304 9.46826 6.53703 9.4866 6.55604C9.51937 6.58623 9.56214 6.60384 9.60708 6.60557H13.7963L12.7665 9.98103H8.58892C8.53506 9.98223 8.4826 9.99806 8.43738 10.0267C8.38242 10.061 8.34228 10.1139 8.32468 10.1753L8.03322 11.1202C8.02371 11.1444 8.02121 11.1707 8.026 11.1963C8.03082 11.2218 8.04271 11.2456 8.06041 11.2649C8.09216 11.2971 8.13526 11.3162 8.18089 11.3182H13.668C13.7248 11.3135 13.7795 11.2952 13.8273 11.2649C13.8847 11.2333 13.9278 11.1816 13.9478 11.1202L15.5255 5.95409H13.7496C13.7214 5.95463 13.6935 5.94951 13.6674 5.93902C13.6413 5.92854 13.6177 5.91291 13.5981 5.89313C13.5659 5.85858 13.5432 5.81666 13.532 5.77122V5.7636Z" fill="white"/>
</g>
<defs>
<clipPath id="clip0_8_1073">
<rect width="18.3627" height="10.016" fill="white" transform="translate(0.937744 3.69861)"/>
</clipPath>
</defs>
</svg>
