<svg width="17" height="17" viewBox="0 0 17 17" fill="none" xmlns="http://www.w3.org/2000/svg">
<g clip-path="url(#clip0_8_1070)">
<path fill-rule="evenodd" clip-rule="evenodd" d="M5.17742 5.4062L1.84351 8.7066C2.51035 9.36676 3.27212 9.92311 4.10266 10.3584C4.33223 10.9612 4.69207 11.5265 5.18217 12.0117C7.02608 13.8371 10.0156 13.8371 11.8595 12.0117C12.3496 11.5265 12.7095 10.9612 12.939 10.3583C13.7696 9.92311 14.5313 9.36676 15.1982 8.7066L11.8669 5.40889C11.8645 5.40642 11.862 5.40395 11.8595 5.40149C10.0156 3.57613 7.02608 3.57613 5.18217 5.40149C5.18059 5.40306 5.17901 5.40463 5.17742 5.4062ZM11.5405 10.9538C10.5689 11.2784 9.54905 11.4446 8.52084 11.4446C7.49263 11.4446 6.47277 11.2784 5.50121 10.9538C5.60648 11.0921 5.7227 11.2248 5.8499 11.3507C7.32503 12.811 9.71665 12.811 11.1918 11.3507C11.319 11.2248 11.4352 11.0921 11.5405 10.9538ZM5.91838 5.99641C6.16888 6.16024 6.43524 6.30043 6.71395 6.41473C7.2868 6.64962 7.90078 6.77052 8.52084 6.77052C9.14089 6.77052 9.75487 6.64962 10.3277 6.41473C10.6064 6.30043 10.8728 6.16023 11.1233 5.9964C9.6666 4.62426 7.37507 4.62426 5.91838 5.99641Z" fill="#3B4158"/>
</g>
<defs>
<clipPath id="clip0_8_1070">
<rect width="13.3547" height="9.34826" fill="white" transform="translate(1.84351 4.03247)"/>
</clipPath>
</defs>
</svg>
