<svg width="17" height="17" viewBox="0 0 17 17" fill="none" xmlns="http://www.w3.org/2000/svg">
<path d="M10.3797 8.3917C10.2993 8.3917 10.2246 8.36959 10.1583 8.33404V8.33499C10.1583 8.46147 10.1092 8.58025 10.02 8.66921C9.93078 8.75841 9.81209 8.80757 9.68575 8.80757C9.60419 8.80757 9.5286 8.78492 9.46157 8.74842C9.45481 8.86413 9.40856 8.97228 9.32605 9.05488C9.23685 9.14408 9.11816 9.19324 8.99174 9.19324C8.74058 9.19324 8.53661 8.99581 8.52191 8.74834C8.4442 8.79034 8.35634 8.81237 8.26572 8.80655C8.01864 8.79034 7.82515 8.57687 7.82515 8.32043V6.19482L7.58311 6.61414C7.49092 6.77453 7.31836 6.87411 7.13256 6.87411C7.04202 6.87411 6.95259 6.85035 6.87338 6.80497C6.77474 6.74778 6.70419 6.65599 6.67484 6.54617C6.64535 6.43629 6.66061 6.32137 6.71763 6.22288C6.71771 6.22288 7.50956 4.85162 7.55787 4.76739C7.56361 4.75473 7.57998 4.718 7.5939 4.68669C7.60719 4.6568 7.6186 4.62612 7.62953 4.59529C7.86833 3.92112 8.45962 3.50234 9.17273 3.50234C10.0988 3.50234 10.8522 4.31928 10.8522 5.32344L10.8522 7.91904C10.8522 8.04537 10.8032 8.16406 10.714 8.25335C10.6248 8.34255 10.5061 8.39171 10.3797 8.39171L10.3797 8.3917ZM9.17274 3.75345C8.55998 3.75345 8.07159 4.09956 7.86622 4.67927C7.85309 4.71608 7.8394 4.75289 7.82343 4.78876C7.7771 4.89267 7.7771 4.89267 7.76404 4.90761L7.76231 4.90612C7.69766 5.02812 7.50557 5.36076 6.93507 6.34856C6.91163 6.38907 6.90541 6.43611 6.91737 6.4811C6.92948 6.52609 6.95851 6.564 6.9987 6.58721C7.12345 6.65886 7.2943 6.61261 7.36541 6.48873L7.842 5.66359C7.87047 5.61443 7.92805 5.59028 7.98327 5.60523C8.03817 5.61994 8.07632 5.66973 8.07632 5.72652V8.32051C8.07632 8.4429 8.16866 8.54853 8.28218 8.556C8.34762 8.55946 8.40866 8.53752 8.45452 8.49174C8.49621 8.45005 8.51917 8.39452 8.51917 8.33513V6.63863C8.51917 6.56925 8.57541 6.51301 8.64479 6.51301C8.71417 6.51301 8.77041 6.56917 8.77041 6.63863L8.77033 8.72074C8.77033 8.84282 8.86967 8.94217 8.99175 8.94217C9.05106 8.94217 9.10675 8.9192 9.14852 8.87751C9.19021 8.83574 9.21317 8.78005 9.21317 8.72074V6.63863C9.21317 6.56925 9.26934 6.51301 9.33879 6.51301C9.40817 6.51301 9.46441 6.56917 9.46441 6.63863L9.46433 8.31562V8.33512C9.46433 8.45712 9.56368 8.55646 9.68583 8.55646C9.74506 8.55646 9.80059 8.53342 9.8426 8.49157C9.88429 8.44996 9.90725 8.39443 9.90725 8.33504V6.63854C9.90725 6.56916 9.96342 6.51292 10.0329 6.51292C10.1022 6.51292 10.1585 6.56908 10.1585 6.63854L10.1583 7.9191C10.1583 8.04126 10.2577 8.1406 10.3797 8.1406C10.4391 8.1406 10.4946 8.11756 10.5363 8.07595C10.5781 8.0341 10.601 7.97841 10.601 7.9191L10.6011 5.3235C10.6011 4.45788 9.96035 3.75348 9.17273 3.75348L9.17274 3.75345Z" fill="#103E13"/>
<path d="M5.44427 10.1957L7.26708 9.10216C7.48685 8.97017 7.76963 9.02626 7.91058 9.2299C7.96203 9.30408 7.9883 9.39052 7.99239 9.47855C8.06035 9.44307 8.13429 9.4238 8.20956 9.4238C8.2481 9.4238 8.2868 9.4286 8.32503 9.43812C8.4475 9.46871 8.5507 9.54525 8.6156 9.65348C8.68057 9.76187 8.69953 9.88889 8.66893 10.0112C8.64069 10.1244 8.57187 10.2197 8.47614 10.285C8.54308 10.3245 8.60081 10.3784 8.64187 10.447C8.70685 10.5554 8.7258 10.6824 8.69528 10.8048C8.66468 10.9271 8.58815 11.0303 8.47976 11.0954L8.47913 11.0958C8.54489 11.1352 8.6016 11.1885 8.64219 11.2561C8.70724 11.3645 8.7262 11.4915 8.6956 11.614C8.66492 11.7364 8.58839 11.8396 8.48016 11.9045L6.25447 13.2398C5.83907 13.4889 5.35886 13.5749 4.90249 13.4817C4.44202 13.3876 4.06068 13.1229 3.82881 12.7364C3.46186 12.1248 3.51685 11.4022 3.97204 10.8508C3.99289 10.8256 4.01342 10.8 4.03206 10.7734C4.0518 10.7453 4.07485 10.7122 4.08272 10.7009C4.12983 10.6168 4.89865 9.23158 4.89857 9.23174C4.9762 9.09165 5.12172 9.01235 5.2718 9.01243C5.3418 9.01243 5.41283 9.02966 5.47836 9.066C5.55749 9.1102 5.62395 9.17462 5.67044 9.25226C5.76601 9.41154 5.76939 9.61087 5.67941 9.77218L5.44427 10.1957ZM5.4552 9.38139C5.43082 9.34073 5.39731 9.30832 5.35632 9.28535C5.27161 9.23847 5.16495 9.26899 5.11831 9.35339C4.56818 10.3445 4.38065 10.6822 4.30828 10.8024L4.30993 10.8028C4.30387 10.823 4.30387 10.823 4.23765 10.9176C4.21515 10.9496 4.19069 10.9804 4.16575 11.0106C3.77434 11.4849 3.72889 12.0817 4.04407 12.6072C4.2393 12.9327 4.56196 13.1558 4.95265 13.2356C5.34758 13.3159 5.76385 13.2412 6.12513 13.0244L8.35102 11.6891C8.40184 11.6586 8.43771 11.6103 8.45202 11.5529C8.46634 11.4957 8.45745 11.4361 8.42693 11.3853C8.36416 11.2807 8.22785 11.2463 8.12323 11.3093L7.02517 11.9681C6.9657 12.0038 6.88846 11.9846 6.85283 11.9251C6.81712 11.8656 6.83639 11.7884 6.89585 11.7527L7.994 11.094L8.35063 10.88C8.40145 10.8495 8.43739 10.8011 8.45171 10.7439C8.46602 10.6866 8.45714 10.627 8.42662 10.5762C8.36377 10.4715 8.22745 10.4375 8.12292 10.5002L6.66814 11.373C6.60851 11.4088 6.53151 11.3894 6.4958 11.3299C6.46009 11.2705 6.47943 11.1933 6.53882 11.1576L8.32429 10.0865C8.3751 10.056 8.41097 10.0077 8.42528 9.95036C8.4396 9.89309 8.43071 9.83355 8.40027 9.78274C8.36983 9.732 8.32145 9.69613 8.26411 9.68182C8.20645 9.6675 8.14715 9.67639 8.09649 9.70675L7.76597 9.90505C7.76589 9.90505 7.76589 9.90513 7.76581 9.90513H7.76573L6.31103 10.7778C6.25141 10.8137 6.17432 10.7944 6.13869 10.7348C6.10298 10.6754 6.12233 10.5982 6.18172 10.5625L7.6365 9.68977C7.68731 9.65925 7.72326 9.61087 7.73758 9.55369C7.75331 9.49092 7.74135 9.42673 7.70407 9.37293C7.63941 9.27941 7.50113 9.25455 7.39628 9.31755L5.172 10.6519C5.12331 10.681 5.06094 10.6739 5.02011 10.6345C4.97921 10.5951 4.97001 10.533 4.99754 10.4834L5.46005 9.65005C5.50646 9.56675 5.50465 9.46386 5.45517 9.38142L5.4552 9.38139Z" fill="#103E13"/>
<path d="M14.1547 12.7363C13.9229 13.1229 13.5416 13.3875 13.0811 13.4816C12.6246 13.5747 12.1446 13.4888 11.7291 13.2397L9.50319 11.9044C9.39488 11.8395 9.31827 11.7363 9.28759 11.6137C9.25715 11.4914 9.27619 11.3643 9.34108 11.2561C9.38159 11.1885 9.43838 11.1351 9.50422 11.0957L9.50359 11.0953C9.39527 11.0304 9.31866 10.9272 9.28815 10.8048C9.25747 10.6824 9.2765 10.5553 9.34148 10.4469C9.38332 10.3773 9.44066 10.3228 9.50611 10.2842C9.41109 10.2189 9.34266 10.1239 9.3145 10.0113C9.28382 9.8888 9.30286 9.76176 9.36783 9.65352C9.43272 9.54521 9.536 9.46868 9.6584 9.43808C9.69662 9.42849 9.7354 9.42377 9.77379 9.42377C9.84914 9.42384 9.92308 9.44296 9.99104 9.47851C9.99521 9.39049 10.0214 9.30405 10.0728 9.22987C10.2139 9.02639 10.4964 8.97007 10.7165 9.10213L12.5393 10.1955L12.3043 9.77229C12.2142 9.61073 12.2175 9.4114 12.313 9.25204C12.3596 9.17448 12.4262 9.11006 12.5057 9.06546C12.571 9.02928 12.6418 9.01214 12.7117 9.01214C12.8617 9.01221 13.0074 9.09134 13.0849 9.23144C13.3552 9.71842 13.8652 10.6368 13.9011 10.7009C13.9087 10.712 13.9317 10.7451 13.9515 10.7732C13.9703 10.7998 13.9906 10.8253 14.0116 10.8506C14.4667 11.4023 14.5216 12.1248 14.1547 12.7363L14.1547 12.7363ZM13.8178 11.0107C13.7928 10.9804 13.7682 10.9495 13.7459 10.9177C13.6779 10.8212 13.6762 10.8187 13.6711 10.7935C13.5916 10.662 13.3978 10.3131 12.8651 9.35329C12.8184 9.26905 12.7122 9.2383 12.6276 9.28502C12.586 9.3083 12.5526 9.34079 12.5282 9.38145C12.4788 9.46381 12.4769 9.56669 12.5235 9.65024L12.9859 10.4833C13.0135 10.533 13.0043 10.595 12.9635 10.6345C12.9227 10.674 12.8604 10.681 12.8115 10.6519L10.5872 9.3175C10.4824 9.25465 10.3442 9.27928 10.2794 9.37288C10.2421 9.42668 10.2302 9.49087 10.2458 9.55356C10.2601 9.61082 10.296 9.65912 10.3469 9.68964C10.3471 9.68971 10.3472 9.68987 10.3473 9.68995L11.8016 10.5624C11.8611 10.5981 11.8804 10.6752 11.8447 10.7348C11.809 10.7942 11.732 10.8136 11.6723 10.7778L9.88687 9.70671C9.83621 9.67635 9.77659 9.66738 9.71933 9.68178C9.66191 9.69609 9.61361 9.73196 9.58317 9.78285C9.55265 9.83358 9.54384 9.89313 9.558 9.95039C9.57232 10.0077 9.60826 10.056 9.65907 10.0865L10.0065 10.2949L11.4445 11.1577C11.5039 11.1934 11.5232 11.2704 11.4875 11.33C11.4518 11.3894 11.3748 11.4087 11.3151 11.373L9.86052 10.5003C9.75591 10.4374 9.61967 10.4715 9.55674 10.5763C9.52622 10.6271 9.51741 10.6866 9.53157 10.7439C9.54589 10.8012 9.58184 10.8495 9.63273 10.8801L9.98936 11.094L11.0873 11.7528C11.1468 11.7885 11.1661 11.8656 11.1304 11.9251C11.0947 11.9845 11.0177 12.004 10.958 11.9681L9.86005 11.3094C9.80939 11.279 9.75001 11.27 9.69243 11.2844C9.63516 11.2988 9.58671 11.3346 9.55627 11.3854C9.52583 11.4362 9.51694 11.4958 9.5311 11.553C9.54542 11.6102 9.58136 11.6585 9.63226 11.6891L11.8581 13.0244C12.2194 13.2411 12.6359 13.3162 13.0306 13.2356C13.4212 13.1559 13.7439 12.9327 13.9391 12.6072C14.2546 12.0816 14.2092 11.4848 13.8179 11.0107L13.8178 11.0107Z" fill="#103E13"/>
</svg>
