<svg width="17" height="17" viewBox="0 0 17 17" fill="none" xmlns="http://www.w3.org/2000/svg">
<path d="M8.14861 3.83618C6.9563 3.83618 5.98564 4.81571 5.98564 6.01311C5.98564 6.77059 6.37461 7.43942 6.96198 7.82928C6.25256 8.06648 5.63871 8.50982 5.18848 9.0898C4.93956 8.89833 4.66142 8.74435 4.36158 8.63401C4.81627 8.29646 5.11339 7.75422 5.11339 7.14479C5.11339 6.12925 4.29205 5.29791 3.28267 5.29791C2.27329 5.29791 1.45195 6.12925 1.45195 7.14479C1.45195 7.75457 1.74932 8.29706 2.20439 8.63461C0.999603 9.07919 0.13916 10.2432 0.13916 11.613V12.5753C0.139283 12.6486 0.168626 12.7189 0.220653 12.7706C0.27268 12.8224 0.343079 12.8512 0.416435 12.851H4.63817C4.6484 12.8521 4.65863 12.8527 4.66886 12.8526H11.6286C11.6388 12.8527 11.6492 12.8521 11.6593 12.851H15.8813C16.0331 12.8503 16.156 12.7272 16.1564 12.5753V11.613C16.1564 10.2432 15.2974 9.07919 14.0933 8.63449C14.5483 8.29706 14.8457 7.75444 14.8457 7.14467C14.8457 6.12913 14.0244 5.29779 13.015 5.29779C12.0057 5.29779 11.1843 6.12913 11.1843 7.14467C11.1843 7.7541 11.4815 8.29643 11.9362 8.63389C11.6358 8.74448 11.3575 8.89896 11.1082 9.0909C10.6582 8.51057 10.0452 8.06662 9.33582 7.82928C9.92303 7.43942 10.3122 6.77059 10.3122 6.01311C10.3122 4.81571 9.341 3.83618 8.14868 3.83618H8.14861ZM8.14861 4.38852C9.04036 4.38852 9.75925 5.11223 9.75925 6.01311C9.75925 6.90694 9.05157 7.62362 8.16969 7.63511C8.16267 7.63511 8.15576 7.63412 8.14861 7.63412C8.14146 7.63412 8.13468 7.63511 8.12753 7.63511C7.24566 7.62376 6.53845 6.90697 6.53845 6.01311C6.53845 5.11211 7.25674 4.38852 8.14849 4.38852H8.14861ZM3.2827 5.85021C3.99026 5.85021 4.56109 6.42448 4.56109 7.14476C4.56109 7.86021 3.99764 8.43202 3.29675 8.43978C3.29206 8.43978 3.2875 8.43929 3.28269 8.43929C3.27801 8.43929 3.27345 8.43978 3.26864 8.43978C2.56774 8.43201 2.0043 7.86008 2.0043 7.14476C2.0043 6.42452 2.57513 5.85021 3.28268 5.85021H3.2827ZM13.0148 5.85021C13.7224 5.85021 14.2932 6.42448 14.2932 7.14476C14.2932 7.86021 13.7298 8.43202 13.0289 8.43978C13.0242 8.43978 13.0196 8.43929 13.0148 8.43929C13.0101 8.43929 13.0056 8.43978 13.0008 8.43978C12.2999 8.43201 11.7364 7.86008 11.7364 7.14476C11.7364 6.42452 12.3073 5.85021 13.0148 5.85021H13.0148ZM8.12746 8.18741C8.13449 8.18753 8.1414 8.1884 8.14855 8.1884C8.15558 8.1884 8.16248 8.18741 8.16963 8.18741C9.93821 8.19875 11.3536 9.62632 11.3536 11.4134L11.3535 12.3001H4.94387V11.4134C4.94387 9.62616 6.35886 8.19877 8.12721 8.18741H8.12746ZM3.26156 8.99275C3.26858 8.99287 3.27549 8.99373 3.28264 8.99373C3.28979 8.99373 3.29657 8.99275 3.30372 8.99275C3.90191 8.99755 4.44784 9.20382 4.88254 9.5489C4.57149 10.0993 4.3916 10.7346 4.3916 11.4135V12.2981H0.691272V11.613C0.691272 10.1606 1.83318 9.00408 3.26149 8.99262L3.26156 8.99275ZM12.9937 8.99275C13.0008 8.99287 13.0076 8.99373 13.0148 8.99373C13.0219 8.99373 13.0287 8.99275 13.0359 8.99275C14.4642 9.00409 15.6061 10.1608 15.6061 11.6131V12.2981H11.9039L11.9037 11.4135C11.9037 10.7349 11.7243 10.1001 11.4139 9.54988C11.8487 9.20431 12.395 8.99754 12.9937 8.99275H12.9937Z" fill="#103E13"/>
</svg>
