<svg width="17" height="17" viewBox="0 0 17 17" fill="none" xmlns="http://www.w3.org/2000/svg">
<g clip-path="url(#clip0_8_1353)">
<path d="M11.0139 5.03432C10.7698 5.03388 10.5267 5.06764 10.2919 5.13462L10.2919 5.13461L10.29 5.13519C10.2158 5.15734 10.1378 5.16449 10.0608 5.15624C9.98373 5.14798 9.90909 5.12449 9.8412 5.08711L9.76069 5.23334L9.8412 5.08711C9.77332 5.04973 9.71355 4.99922 9.66537 4.93852C9.6172 4.87783 9.58158 4.80815 9.56058 4.73355C9.53959 4.65896 9.53365 4.58093 9.54311 4.50402C9.55256 4.4271 9.57722 4.35284 9.61565 4.28554C9.65409 4.21825 9.70552 4.15927 9.76696 4.11205C9.8284 4.06483 9.89862 4.0303 9.97354 4.01047L9.97355 4.0105L9.97654 4.00965C10.3138 3.91363 10.6629 3.8652 11.0135 3.86579L11.0143 3.86579C11.8023 3.8635 12.5718 4.10412 13.2182 4.55488C13.8645 5.00565 14.3562 5.64466 14.6264 6.38491C14.8965 7.12516 14.9319 7.93067 14.7278 8.69178C14.5237 9.45289 14.09 10.1326 13.4858 10.6384L13.282 10.8089L13.5241 10.9185C14.5168 11.3677 15.371 12.0746 15.998 12.9658L15.9987 12.9668C16.0432 13.0292 16.075 13.0997 16.092 13.1744C16.1091 13.2491 16.1111 13.3264 16.098 13.4019C16.0849 13.4774 16.0569 13.5495 16.0157 13.614C15.9744 13.6786 15.9208 13.7343 15.8578 13.778L15.8578 13.778L15.8559 13.7794C15.7584 13.849 15.6415 13.8863 15.5218 13.886C15.4281 13.8854 15.3359 13.8625 15.2528 13.8193C15.1697 13.776 15.0981 13.7137 15.0439 13.6373C14.5886 12.9915 13.9851 12.4644 13.2839 12.1003C12.5826 11.7361 11.8042 11.5456 11.014 11.5447H11.0138C10.8589 11.5447 10.7102 11.4832 10.6007 11.3736C10.4911 11.264 10.4295 11.1154 10.4295 10.9605C10.4295 10.8055 10.4911 10.6569 10.6007 10.5473C10.7102 10.4377 10.8589 10.3762 11.0138 10.3762C11.7222 10.3762 12.4016 10.0948 12.9024 9.59389C13.4033 9.09299 13.6847 8.41363 13.6847 7.70525C13.6847 6.99688 13.4033 6.31752 12.9024 5.81662C12.4016 5.31575 11.7223 5.03435 11.0139 5.03432ZM11.0139 5.03432C11.014 5.03432 11.0141 5.03432 11.0141 5.03432L11.0138 5.20125V5.03432C11.0139 5.03432 11.0139 5.03432 11.0139 5.03432ZM8.38357 10.6386L8.1808 10.8092L8.42221 10.9185C9.41489 11.3677 10.2691 12.0746 10.8961 12.9658L10.8959 12.9659L10.901 12.9725C10.9497 13.0349 10.9852 13.1065 11.0054 13.183L11.1668 13.1405L11.0054 13.183C11.0256 13.2596 11.03 13.3394 11.0184 13.4177C11.0068 13.496 10.9794 13.5711 10.9378 13.6385C10.8963 13.7059 10.8415 13.7641 10.7768 13.8097C10.7121 13.8553 10.6388 13.8872 10.5613 13.9036C10.4839 13.92 10.4039 13.9204 10.3263 13.905C10.2487 13.8895 10.175 13.8584 10.1097 13.8137C10.0445 13.7689 9.98902 13.7113 9.9467 13.6444L9.94686 13.6443L9.94226 13.6377C9.48796 12.9907 8.88454 12.4625 8.18303 12.0979C7.48152 11.7333 6.70253 11.5429 5.91191 11.5429C5.1213 11.5429 4.34231 11.7333 3.6408 12.0979C2.93929 12.4625 2.33587 12.9907 1.88157 13.6377L1.8812 13.6382C1.8278 13.7149 1.75659 13.7775 1.67369 13.8207C1.59078 13.8638 1.49865 13.8862 1.4052 13.886L1.40417 13.886C1.28431 13.8863 1.16736 13.8491 1.06985 13.7794L1.06905 13.7788C0.942652 13.6896 0.856806 13.5539 0.830337 13.4014C0.803867 13.249 0.838934 13.0923 0.927848 12.9657C1.55479 12.0746 2.40898 11.3677 3.40162 10.9185L3.64303 10.8092L3.44026 10.6386C2.83762 10.1317 2.40545 9.45166 2.20234 8.69078C1.99923 7.9299 2.03501 7.12497 2.30482 6.38511C2.57464 5.64525 3.06543 5.00626 3.71068 4.55475C4.35592 4.10325 5.12439 3.86109 5.91191 3.86109C6.69944 3.86109 7.46791 4.10325 8.11315 4.55475C8.75839 5.00626 9.24919 5.64525 9.51901 6.38511C9.78882 7.12497 9.8246 7.9299 9.62149 8.69078C9.41838 9.45166 8.98621 10.1317 8.38357 10.6386ZM0.972776 13.9152C1.09876 14.0052 1.24986 14.0534 1.40472 14.0529C1.52517 14.0532 1.6439 14.0244 1.75075 13.9688C1.8576 13.9132 1.94937 13.8325 2.0182 13.7336C2.4571 13.1085 3.04005 12.5983 3.71779 12.246C4.39552 11.8937 5.1481 11.7098 5.91191 11.7098C6.67573 11.7098 7.42831 11.8937 8.10604 12.246C8.78378 12.5983 9.36673 13.1085 9.80563 13.7336L0.972776 13.9152ZM3.69112 6.22136C3.39763 6.66059 3.24098 7.17699 3.24098 7.70525C3.24098 8.41363 3.52238 9.09299 4.02328 9.59389C4.52418 10.0948 5.20354 10.3762 5.91191 10.3762C6.44018 10.3762 6.95657 10.2195 7.3958 9.92605C7.83504 9.63257 8.17738 9.21542 8.37953 8.72737C8.58169 8.23933 8.63458 7.70229 8.53153 7.18418C8.42847 6.66607 8.17409 6.19015 7.80055 5.81662C7.42701 5.44308 6.9511 5.1887 6.43299 5.08564C5.91488 4.98258 5.37784 5.03548 4.88979 5.23763C4.40174 5.43979 3.9846 5.78213 3.69112 6.22136Z" fill="#4CAF4F" stroke="#4CAF4F" stroke-width="0.333867"/>
</g>
<defs>
<clipPath id="clip0_8_1353">
<rect width="16.0256" height="16.0256" fill="white" transform="translate(0.403076 0.944458)"/>
</clipPath>
</defs>
</svg>
