<svg width="17" height="17" viewBox="0 0 17 17" fill="none" xmlns="http://www.w3.org/2000/svg">
<mask id="path-1-inside-1_8_1359" fill="white">
<path d="M10.3409 7.92435C10.2605 7.92435 10.1858 7.90225 10.1195 7.8667V7.86764C10.1195 7.99412 10.0704 8.1129 9.98116 8.20186C9.89196 8.29106 9.77327 8.34022 9.64694 8.34022C9.56537 8.34022 9.48978 8.31757 9.42276 8.28107C9.41599 8.39678 9.36974 8.50493 9.28723 8.58753C9.19803 8.67673 9.07934 8.72589 8.95292 8.72589C8.70176 8.72589 8.4978 8.52846 8.4831 8.281C8.40538 8.323 8.31752 8.34502 8.2269 8.3392C7.97982 8.323 7.78633 8.10952 7.78633 7.85309V5.72748L7.54429 6.1468C7.4521 6.30718 7.27954 6.40676 7.09374 6.40676C7.0032 6.40676 6.91377 6.38301 6.83456 6.33762C6.73592 6.28044 6.66537 6.18864 6.63603 6.07883C6.60653 5.96894 6.62179 5.85402 6.67882 5.75553C6.67889 5.75553 7.47074 4.38428 7.51905 4.30005C7.52479 4.28738 7.54116 4.25065 7.55508 4.21934C7.56837 4.18945 7.57978 4.15878 7.59071 4.12794C7.82951 3.45377 8.4208 3.03499 9.13391 3.03499C10.06 3.03499 10.8133 3.85193 10.8133 4.8561L10.8134 7.4517C10.8134 7.57802 10.7643 7.69672 10.6752 7.786C10.586 7.8752 10.4673 7.92436 10.3408 7.92436L10.3409 7.92435ZM9.13392 3.28611C8.52117 3.28611 8.03278 3.63221 7.8274 4.21192C7.81427 4.24874 7.80058 4.28555 7.78461 4.32142C7.73828 4.42532 7.73828 4.42532 7.72523 4.44027L7.7235 4.43877C7.65884 4.56077 7.46676 4.89342 6.89625 5.88121C6.87281 5.92172 6.86659 5.96876 6.87855 6.01375C6.89066 6.05874 6.91969 6.09666 6.95988 6.11986C7.08463 6.19152 7.25549 6.14527 7.32659 6.02138L7.80318 5.19625C7.83166 5.14709 7.88923 5.12294 7.94445 5.13788C7.99935 5.15259 8.0375 5.20238 8.0375 5.25917V7.85316C8.0375 7.97555 8.12985 8.08118 8.24336 8.08866C8.3088 8.09212 8.36984 8.07017 8.4157 8.02439C8.45739 7.9827 8.48035 7.92717 8.48035 7.86778V6.17128C8.48035 6.10191 8.5366 6.04566 8.60597 6.04566C8.67535 6.04566 8.73159 6.10183 8.73159 6.17128L8.73151 8.2534C8.73151 8.37548 8.83086 8.47482 8.95293 8.47482C9.01224 8.47482 9.06793 8.45185 9.1097 8.41016C9.15139 8.3684 9.17436 8.31271 9.17436 8.2534V6.17128C9.17436 6.1019 9.23052 6.04566 9.29997 6.04566C9.36935 6.04566 9.42559 6.10183 9.42559 6.17128L9.42551 7.84827V7.86778C9.42551 7.98978 9.52486 8.08912 9.64701 8.08912C9.70624 8.08912 9.76178 8.06607 9.80378 8.02422C9.84547 7.98261 9.86844 7.92708 9.86844 7.86769V6.17119C9.86844 6.10182 9.9246 6.04558 9.99405 6.04558C10.0634 6.04558 10.1197 6.10174 10.1197 6.17119L10.1195 7.45175C10.1195 7.57391 10.2189 7.67326 10.3409 7.67326C10.4002 7.67326 10.4558 7.65021 10.4975 7.6086C10.5393 7.56675 10.5622 7.51106 10.5622 7.45175L10.5623 4.85616C10.5623 3.99053 9.92153 3.28613 9.13391 3.28613L9.13392 3.28611Z"/>
</mask>
<path d="M10.3409 7.92435C10.2605 7.92435 10.1858 7.90225 10.1195 7.8667V7.86764C10.1195 7.99412 10.0704 8.1129 9.98116 8.20186C9.89196 8.29106 9.77327 8.34022 9.64694 8.34022C9.56537 8.34022 9.48978 8.31757 9.42276 8.28107C9.41599 8.39678 9.36974 8.50493 9.28723 8.58753C9.19803 8.67673 9.07934 8.72589 8.95292 8.72589C8.70176 8.72589 8.4978 8.52846 8.4831 8.281C8.40538 8.323 8.31752 8.34502 8.2269 8.3392C7.97982 8.323 7.78633 8.10952 7.78633 7.85309V5.72748L7.54429 6.1468C7.4521 6.30718 7.27954 6.40676 7.09374 6.40676C7.0032 6.40676 6.91377 6.38301 6.83456 6.33762C6.73592 6.28044 6.66537 6.18864 6.63603 6.07883C6.60653 5.96894 6.62179 5.85402 6.67882 5.75553C6.67889 5.75553 7.47074 4.38428 7.51905 4.30005C7.52479 4.28738 7.54116 4.25065 7.55508 4.21934C7.56837 4.18945 7.57978 4.15878 7.59071 4.12794C7.82951 3.45377 8.4208 3.03499 9.13391 3.03499C10.06 3.03499 10.8133 3.85193 10.8133 4.8561L10.8134 7.4517C10.8134 7.57802 10.7643 7.69672 10.6752 7.786C10.586 7.8752 10.4673 7.92436 10.3408 7.92436L10.3409 7.92435ZM9.13392 3.28611C8.52117 3.28611 8.03278 3.63221 7.8274 4.21192C7.81427 4.24874 7.80058 4.28555 7.78461 4.32142C7.73828 4.42532 7.73828 4.42532 7.72523 4.44027L7.7235 4.43877C7.65884 4.56077 7.46676 4.89342 6.89625 5.88121C6.87281 5.92172 6.86659 5.96876 6.87855 6.01375C6.89066 6.05874 6.91969 6.09666 6.95988 6.11986C7.08463 6.19152 7.25549 6.14527 7.32659 6.02138L7.80318 5.19625C7.83166 5.14709 7.88923 5.12294 7.94445 5.13788C7.99935 5.15259 8.0375 5.20238 8.0375 5.25917V7.85316C8.0375 7.97555 8.12985 8.08118 8.24336 8.08866C8.3088 8.09212 8.36984 8.07017 8.4157 8.02439C8.45739 7.9827 8.48035 7.92717 8.48035 7.86778V6.17128C8.48035 6.10191 8.5366 6.04566 8.60597 6.04566C8.67535 6.04566 8.73159 6.10183 8.73159 6.17128L8.73151 8.2534C8.73151 8.37548 8.83086 8.47482 8.95293 8.47482C9.01224 8.47482 9.06793 8.45185 9.1097 8.41016C9.15139 8.3684 9.17436 8.31271 9.17436 8.2534V6.17128C9.17436 6.1019 9.23052 6.04566 9.29997 6.04566C9.36935 6.04566 9.42559 6.10183 9.42559 6.17128L9.42551 7.84827V7.86778C9.42551 7.98978 9.52486 8.08912 9.64701 8.08912C9.70624 8.08912 9.76178 8.06607 9.80378 8.02422C9.84547 7.98261 9.86844 7.92708 9.86844 7.86769V6.17119C9.86844 6.10182 9.9246 6.04558 9.99405 6.04558C10.0634 6.04558 10.1197 6.10174 10.1197 6.17119L10.1195 7.45175C10.1195 7.57391 10.2189 7.67326 10.3409 7.67326C10.4002 7.67326 10.4558 7.65021 10.4975 7.6086C10.5393 7.56675 10.5622 7.51106 10.5622 7.45175L10.5623 4.85616C10.5623 3.99053 9.92153 3.28613 9.13391 3.28613L9.13392 3.28611Z" fill="#4CAF4F"/>
<path d="M10.3409 7.92435V7.4792H11.9136L10.5742 8.30347L10.3409 7.92435ZM10.1195 7.8667H9.67437V7.12289L10.3299 7.47438L10.1195 7.8667ZM9.98116 8.20186L9.66639 7.88709L9.66681 7.88668L9.98116 8.20186ZM9.42276 8.28107L8.97836 8.25509L9.01932 7.55449L9.63565 7.89013L9.42276 8.28107ZM9.28723 8.58753L9.60217 8.90214L9.602 8.9023L9.28723 8.58753ZM8.4831 8.281L8.27144 7.88938L8.88604 7.5572L8.92747 8.2546L8.4831 8.281ZM8.2269 8.3392L8.19836 8.78344L8.19777 8.7834L8.2269 8.3392ZM7.78633 5.72748L7.40079 5.50494L8.23149 4.0658V5.72748H7.78633ZM7.54429 6.1468L7.15835 5.92496L7.15875 5.92426L7.54429 6.1468ZM6.83456 6.33762L6.61324 6.72387L6.61129 6.72274L6.83456 6.33762ZM6.63603 6.07883L7.06596 5.96342L7.0661 5.96392L6.63603 6.07883ZM6.67882 5.75553L6.29358 5.53247L6.42218 5.31038H6.67882V5.75553ZM7.51905 4.30005L7.92448 4.48387L7.91574 4.50315L7.90521 4.52151L7.51905 4.30005ZM7.55508 4.21934L7.14833 4.03846L7.14833 4.03845L7.55508 4.21934ZM7.59071 4.12794L8.01032 4.27657L8.01028 4.27669L7.59071 4.12794ZM10.8133 4.8561L10.3682 4.85611V4.8561H10.8133ZM10.8134 7.4517L11.2586 7.45168V7.4517H10.8134ZM10.6752 7.786L10.9903 8.10048L10.99 8.10077L10.6752 7.786ZM10.3408 7.92436V8.36952H8.76809L10.1075 7.54524L10.3408 7.92436ZM9.13392 3.28611V2.84095H9.72408L9.56195 3.4084L9.13392 3.28611ZM7.8274 4.21192L8.24701 4.36058L8.24666 4.36153L7.8274 4.21192ZM7.78461 4.32142L8.19129 4.50246L8.19119 4.5027L7.78461 4.32142ZM7.72523 4.44027L8.06045 4.73316L7.76923 5.06646L7.43426 4.77717L7.72523 4.44027ZM7.7235 4.43877L7.33016 4.23032L7.59173 3.73678L8.01446 4.10187L7.7235 4.43877ZM6.89625 5.88121L7.28173 6.10385L7.28154 6.10417L6.89625 5.88121ZM6.87855 6.01375L6.4487 6.12948L6.44833 6.12809L6.87855 6.01375ZM6.95988 6.11986L6.73816 6.50587L6.73733 6.50539L6.95988 6.11986ZM7.32659 6.02138L6.9405 5.79979L6.94111 5.79873L7.32659 6.02138ZM7.80318 5.19625L7.4177 4.9736L7.41798 4.97313L7.80318 5.19625ZM7.94445 5.13788L7.82925 5.56788L7.82815 5.56758L7.94445 5.13788ZM8.24336 8.08866L8.21985 8.53323L8.21412 8.53285L8.24336 8.08866ZM8.4157 8.02439L8.73047 8.33916L8.7302 8.33944L8.4157 8.02439ZM8.73159 6.17128H9.17675V6.1713L8.73159 6.17128ZM8.73151 8.2534H8.28636V8.25338L8.73151 8.2534ZM9.1097 8.41016L9.42477 8.72464L9.42417 8.72524L9.1097 8.41016ZM9.42559 6.17128H9.87075V6.1713L9.42559 6.17128ZM9.42551 7.84827H8.98036V7.84825L9.42551 7.84827ZM9.80378 8.02422L10.1183 8.33929L10.118 8.33959L9.80378 8.02422ZM10.1197 6.17119H10.5648V6.17125L10.1197 6.17119ZM10.1195 7.45175H9.67436L9.67436 7.4517L10.1195 7.45175ZM10.4975 7.6086L10.8122 7.92337L10.8119 7.92367L10.4975 7.6086ZM10.5622 7.45175H10.117V7.45174L10.5622 7.45175ZM10.5623 4.85616H11.0074V4.85617L10.5623 4.85616ZM9.13391 3.28613V3.73129H8.54376L8.70589 3.16384L9.13391 3.28613ZM10.3409 8.36951C10.1769 8.36951 10.0306 8.32413 9.90916 8.25901L10.3299 7.47438C10.3356 7.47746 10.3393 7.47864 10.3407 7.47903C10.342 7.47937 10.3418 7.4792 10.3409 7.4792V8.36951ZM10.5647 7.8667V7.86764H9.67437V7.8667H10.5647ZM10.5647 7.86764C10.5647 8.11182 10.4689 8.34417 10.2955 8.51705L9.66681 7.88668C9.66999 7.8835 9.67156 7.88078 9.67248 7.87856C9.67341 7.87633 9.67437 7.8729 9.67437 7.86764H10.5647ZM10.2959 8.51664C10.1232 8.68939 9.89123 8.78538 9.64694 8.78538V7.89507C9.65204 7.89507 9.65541 7.89414 9.65769 7.8932C9.65997 7.89225 9.66291 7.89057 9.66639 7.88709L10.2959 8.51664ZM9.64694 8.78538C9.48088 8.78538 9.33271 8.73892 9.20986 8.67202L9.63565 7.89013C9.64145 7.89328 9.64512 7.89449 9.64658 7.89488C9.64783 7.89522 9.64773 7.89507 9.64694 7.89507V8.78538ZM9.86715 8.30705C9.85434 8.52617 9.76546 8.73867 9.60217 8.90214L8.97229 8.27292C8.97394 8.27127 8.9749 8.26981 8.97571 8.26797C8.97658 8.26597 8.97796 8.26189 8.97836 8.25509L9.86715 8.30705ZM9.602 8.9023C9.42922 9.07509 9.19726 9.17105 8.95292 9.17105V8.28074C8.9581 8.28074 8.96149 8.2798 8.96377 8.27885C8.96604 8.27791 8.96898 8.27623 8.97246 8.27276L9.602 8.9023ZM8.95292 9.17105C8.46147 9.17105 8.06711 8.78533 8.03872 8.30739L8.92747 8.2546C8.92792 8.26217 8.93102 8.26881 8.9365 8.27404C8.93917 8.27659 8.94188 8.27823 8.94424 8.27919C8.94631 8.28004 8.94894 8.28074 8.95292 8.28074V9.17105ZM8.69475 8.67261C8.55097 8.75033 8.38048 8.79514 8.19836 8.78344L8.25544 7.89496C8.25545 7.89496 8.2564 7.89506 8.25874 7.89451C8.26125 7.89392 8.26561 7.89253 8.27144 7.88938L8.69475 8.67261ZM8.19777 8.7834C7.7035 8.75099 7.34118 8.33065 7.34118 7.85309H8.23149C8.23149 7.86814 8.23695 7.87973 8.2438 7.88729C8.25048 7.89465 8.25501 7.89493 8.25603 7.895L8.19777 8.7834ZM7.34118 7.85309V5.72748H8.23149V7.85309H7.34118ZM8.17187 5.95002L7.92983 6.36934L7.15875 5.92426L7.40079 5.50494L8.17187 5.95002ZM7.93023 6.36864C7.75822 6.66789 7.43804 6.85192 7.09374 6.85192V5.96161C7.12103 5.96161 7.14599 5.94647 7.15835 5.92496L7.93023 6.36864ZM7.09374 6.85192C6.9254 6.85192 6.75969 6.80777 6.61324 6.72386L7.05588 5.95138C7.06785 5.95824 7.08101 5.96161 7.09374 5.96161V6.85192ZM6.61129 6.72274C6.41143 6.60687 6.26596 6.41831 6.20596 6.19373L7.0661 5.96392C7.06569 5.9624 7.06458 5.95971 7.06244 5.95692C7.06031 5.95415 7.05834 5.9528 7.05783 5.9525L6.61129 6.72274ZM6.20609 6.19423C6.14585 5.96982 6.17739 5.73314 6.29358 5.53247L7.06405 5.9786C7.06469 5.9775 7.0658 5.97496 7.06628 5.97136C7.06675 5.96776 7.06635 5.96488 7.06596 5.96342L6.20609 6.19423ZM6.67882 5.31038C6.46045 5.36762 6.297 5.52666 6.29578 5.52871C6.29538 5.5294 6.29477 5.53043 6.29458 5.53076C6.29447 5.53095 6.29428 5.53127 6.29421 5.53138C6.29417 5.53145 6.29409 5.53159 6.29407 5.53162C6.29401 5.53173 6.29403 5.5317 6.2942 5.53141C6.2945 5.53089 6.29501 5.53001 6.29575 5.52873C6.29721 5.5262 6.29941 5.5224 6.30231 5.51738C6.3081 5.50735 6.31662 5.49261 6.32749 5.47379C6.34924 5.43614 6.38036 5.38227 6.41785 5.31734C6.49285 5.18748 6.59334 5.01345 6.69534 4.83679C6.89968 4.48288 7.10917 4.11996 7.1329 4.07858L7.90521 4.52151C7.88063 4.56437 7.67004 4.92919 7.46636 5.28196C7.36435 5.45864 7.26384 5.6327 7.18883 5.76258C7.15133 5.82752 7.12019 5.88143 7.09843 5.91911C7.08755 5.93795 7.079 5.95275 7.07316 5.96285C7.07025 5.96789 7.06799 5.9718 7.06645 5.97446C7.06568 5.97578 7.06505 5.97687 7.06459 5.97767C7.06438 5.97804 7.06411 5.9785 7.06385 5.97894C7.06376 5.97911 7.06347 5.9796 7.06313 5.98019C7.06291 5.98056 7.06229 5.98162 7.06187 5.98232C7.06063 5.9844 6.89718 6.14345 6.67882 6.20069V5.31038ZM7.11363 4.11622C7.11853 4.10541 7.13405 4.07057 7.14833 4.03846L7.96183 4.40023C7.94826 4.43073 7.93106 4.46935 7.92448 4.48387L7.11363 4.11622ZM7.14833 4.03845C7.15452 4.02454 7.16137 4.00676 7.17114 3.97919L8.01028 4.27669C7.99819 4.31079 7.98222 4.35437 7.96182 4.40024L7.14833 4.03845ZM7.1711 3.97931C7.4726 3.12813 8.23148 2.58984 9.13391 2.58984V3.48015C8.61011 3.48015 8.18642 3.77942 8.01032 4.27657L7.1711 3.97931ZM9.13391 2.58984C10.3391 2.58984 11.2585 3.64071 11.2585 4.8561H10.3682C10.3682 4.06315 9.78084 3.48015 9.13391 3.48015V2.58984ZM11.2585 4.85608L11.2586 7.45168L10.3683 7.45171L10.3682 4.85611L11.2585 4.85608ZM11.2586 7.4517C11.2586 7.69581 11.1628 7.92764 10.9903 8.10048L10.3601 7.47152C10.3637 7.468 10.3654 7.465 10.3664 7.46266C10.3673 7.46032 10.3683 7.45688 10.3683 7.4517H11.2586ZM10.99 8.10077C10.8172 8.27358 10.5852 8.36952 10.3408 8.36952V7.47921C10.3461 7.47921 10.3495 7.47826 10.3518 7.47732C10.354 7.47638 10.357 7.4747 10.3604 7.47123L10.99 8.10077ZM10.1075 7.54524L10.1076 7.54523L10.5742 8.30347L10.5742 8.30348L10.1075 7.54524ZM9.13392 3.73126C8.71068 3.73126 8.38974 3.95768 8.24701 4.36058L7.4078 4.06327C7.67581 3.30675 8.33165 2.84095 9.13392 2.84095V3.73126ZM8.24666 4.36153C8.23261 4.40091 8.21436 4.45064 8.19129 4.50246L7.37794 4.14037C7.3868 4.12045 7.39592 4.09656 7.40814 4.06231L8.24666 4.36153ZM8.19119 4.5027C8.1708 4.54842 8.15372 4.58703 8.14065 4.61318C8.13254 4.62941 8.11941 4.65443 8.10037 4.68214C8.08107 4.71022 8.062 4.73139 8.06045 4.73316L7.39 4.14737C7.39105 4.14617 7.39071 4.14656 7.39018 4.14718C7.3895 4.14797 7.38777 4.14998 7.3855 4.15275C7.38043 4.15893 7.37379 4.16745 7.36663 4.17787C7.35271 4.19813 7.34492 4.21385 7.34423 4.21523C7.34373 4.21624 7.34404 4.21564 7.34556 4.2124C7.34702 4.20927 7.3491 4.20475 7.35207 4.19817C7.35816 4.18473 7.36624 4.1666 7.37804 4.14014L8.19119 4.5027ZM7.43426 4.77717L7.43253 4.77568L8.01446 4.10187L8.01619 4.10336L7.43426 4.77717ZM8.11683 4.64723C8.04716 4.77869 7.84826 5.12294 7.28173 6.10385L6.51077 5.65857C7.08525 4.66389 7.27052 4.34286 7.33016 4.23032L8.11683 4.64723ZM7.28154 6.10417C7.31716 6.04261 7.32709 5.96835 7.30877 5.89941L6.44833 6.12809C6.40609 5.96917 6.42845 5.80083 6.51095 5.65825L7.28154 6.10417ZM7.3084 5.89802C7.29008 5.82999 7.24506 5.77048 7.18244 5.73433L6.73733 6.50539C6.59432 6.42283 6.49124 6.2875 6.4487 6.12948L7.3084 5.89802ZM7.18161 5.73385C7.13094 5.70475 7.08165 5.70494 7.04762 5.7141C7.01372 5.72323 6.97026 5.74795 6.9405 5.79979L7.71267 6.24297C7.51867 6.581 7.07528 6.69951 6.73816 6.50587L7.18161 5.73385ZM6.94111 5.79873L7.4177 4.9736L8.18866 5.41889L7.71206 6.24403L6.94111 5.79873ZM7.41798 4.97313C7.54655 4.75114 7.809 4.64005 8.06075 4.70819L7.82815 5.56758C7.96946 5.60583 8.11676 5.54303 8.18838 5.41936L7.41798 4.97313ZM8.05965 4.70789C8.30938 4.7748 8.48266 5.00111 8.48266 5.25917H7.59235C7.59235 5.40365 7.68932 5.53039 7.82925 5.56787L8.05965 4.70789ZM8.48266 5.25917V7.85316H7.59235V5.25917H8.48266ZM8.48266 7.85316C8.48266 7.80243 8.46387 7.75632 8.43302 7.72103C8.40222 7.68579 8.34787 7.64941 8.27259 7.64446L8.21412 8.53285C7.83939 8.50819 7.59235 8.18175 7.59235 7.85316H8.48266ZM8.26687 7.64412C8.21428 7.64134 8.15003 7.6606 8.1012 7.70934L8.7302 8.33944C8.58965 8.47974 8.40333 8.54289 8.21985 8.53319L8.26687 7.64412ZM8.10093 7.70962C8.05868 7.75187 8.0352 7.80975 8.0352 7.86778H8.92551C8.92551 8.04459 8.85609 8.21354 8.73047 8.33916L8.10093 7.70962ZM8.0352 7.86778V6.17128H8.92551V7.86778H8.0352ZM8.0352 6.17128C8.0352 5.85605 8.29074 5.60051 8.60597 5.60051V6.49082C8.78245 6.49082 8.92551 6.34776 8.92551 6.17128H8.0352ZM8.60597 5.60051C8.92102 5.60051 9.17675 5.8558 9.17675 6.17128H8.28643C8.28643 6.34786 8.42967 6.49082 8.60597 6.49082V5.60051ZM9.17675 6.1713L9.17667 8.25341L8.28636 8.25338L8.28643 6.17127L9.17675 6.1713ZM9.17667 8.2534C9.17667 8.12962 9.07671 8.02966 8.95293 8.02966V8.91997C8.58501 8.91997 8.28636 8.62133 8.28636 8.2534H9.17667ZM8.95293 8.02966C8.89499 8.02966 8.83739 8.05301 8.79523 8.09509L9.42417 8.72524C9.29847 8.85069 9.12949 8.91997 8.95293 8.91997V8.02966ZM8.79463 8.09569C8.75254 8.13785 8.7292 8.19546 8.7292 8.2534H9.61951C9.61951 8.42995 9.55023 8.59894 9.42477 8.72464L8.79463 8.09569ZM8.7292 8.2534V6.17128H9.61951V8.2534H8.7292ZM8.7292 6.17128C8.7292 5.85624 8.98448 5.60051 9.29997 5.60051V6.49082C9.47656 6.49082 9.61951 6.34757 9.61951 6.17128H8.7292ZM9.29997 5.60051C9.61502 5.60051 9.87075 5.85579 9.87075 6.17128H8.98044C8.98044 6.34786 9.12368 6.49082 9.29997 6.49082V5.60051ZM9.87075 6.1713L9.87067 7.84829L8.98036 7.84825L8.98044 6.17126L9.87075 6.1713ZM9.87067 7.84827V7.86778H8.98036V7.84827H9.87067ZM9.87067 7.86778C9.87067 7.74371 9.77049 7.64396 9.64701 7.64396V8.53427C9.27922 8.53427 8.98036 8.23585 8.98036 7.86778H9.87067ZM9.64701 7.64396C9.58786 7.64396 9.5306 7.66802 9.4896 7.70886L10.118 8.33959C9.99295 8.46413 9.82462 8.53427 9.64701 8.53427V7.64396ZM9.4893 7.70915C9.44672 7.75166 9.42328 7.80973 9.42328 7.86769H10.3136C10.3136 8.04443 10.2442 8.21357 10.1183 8.33929L9.4893 7.70915ZM9.42328 7.86769V6.17119H10.3136V7.86769H9.42328ZM9.42328 6.17119C9.42328 5.85614 9.67857 5.60042 9.99405 5.60042V6.49073C10.1706 6.49073 10.3136 6.34749 10.3136 6.17119H9.42328ZM9.99405 5.60042C10.3091 5.60042 10.5648 5.8557 10.5648 6.17119H9.67452C9.67452 6.34777 9.81776 6.49073 9.99405 6.49073V5.60042ZM10.5648 6.17125L10.5647 7.45181L9.67436 7.4517L9.67452 6.17114L10.5648 6.17125ZM10.5647 7.45175C10.5647 7.32827 10.4649 7.2281 10.3409 7.2281V8.11841C9.9728 8.11841 9.67436 7.81955 9.67436 7.45175H10.5647ZM10.3409 7.2281C10.2825 7.2281 10.2249 7.25174 10.183 7.29353L10.8119 7.92367C10.6867 8.04868 10.518 8.11841 10.3409 8.11841V7.2281ZM10.1827 7.29383C10.1403 7.33622 10.117 7.39407 10.117 7.45175H11.0074C11.0074 7.62806 10.9383 7.79729 10.8122 7.92337L10.1827 7.29383ZM10.117 7.45174L10.1171 4.85614L11.0074 4.85617L11.0074 7.45177L10.117 7.45174ZM10.1171 4.85616C10.1171 4.19581 9.63698 3.73129 9.13391 3.73129V2.84098C10.2061 2.84098 11.0074 3.78525 11.0074 4.85616H10.1171ZM8.70589 3.16384L8.70589 3.16381L9.56195 3.4084L9.56194 3.40843L8.70589 3.16384Z" fill="#4CAF4F" mask="url(#path-1-inside-1_8_1359)"/>
<mask id="path-3-inside-2_8_1359" fill="white">
<path d="M5.40545 9.72833L7.22826 8.63481C7.44803 8.50283 7.73081 8.55891 7.87177 8.76256C7.92321 8.83673 7.94948 8.92318 7.95357 9.0112C8.02153 8.97573 8.09547 8.95646 8.17074 8.95646C8.20929 8.95646 8.24798 8.96125 8.28621 8.97077C8.40868 9.00137 8.51188 9.0779 8.57678 9.18613C8.64176 9.29452 8.66071 9.42155 8.63011 9.54388C8.60188 9.65707 8.53305 9.75233 8.43732 9.81769C8.50426 9.85718 8.562 9.91106 8.60306 9.97965C8.66803 10.088 8.68698 10.215 8.65646 10.3375C8.62587 10.4598 8.54933 10.563 8.44094 10.628L8.44031 10.6284C8.50607 10.6678 8.56278 10.7212 8.60337 10.7887C8.66842 10.8971 8.68738 11.0242 8.65678 11.1466C8.6261 11.269 8.54957 11.3722 8.44134 11.4372L6.21565 12.7724C5.80026 13.0215 5.32004 13.1075 4.86367 13.0143C4.40321 12.9202 4.02186 12.6556 3.78999 12.269C3.42304 11.6575 3.47803 10.9349 3.93323 10.3834C3.95407 10.3582 3.9746 10.3326 3.99324 10.306C4.01299 10.2779 4.03603 10.2449 4.0439 10.2336C4.09101 10.1494 4.85983 8.76423 4.85975 8.76439C4.93738 8.6243 5.0829 8.545 5.23298 8.54508C5.30298 8.54508 5.37401 8.56231 5.43954 8.59865C5.51867 8.64286 5.58514 8.70728 5.63162 8.78491C5.72719 8.9442 5.73058 9.14352 5.64059 9.30484L5.40545 9.72833ZM5.41638 8.91405C5.392 8.87338 5.35849 8.84097 5.31751 8.81801C5.23279 8.77113 5.12613 8.80165 5.07949 8.88605C4.52936 9.87714 4.34183 10.2149 4.26946 10.3351L4.27111 10.3355C4.26506 10.3556 4.26506 10.3556 4.19883 10.4502C4.17633 10.4823 4.15187 10.513 4.12693 10.5433C3.73552 11.0175 3.69007 11.6143 4.00525 12.1398C4.20048 12.4653 4.52314 12.6885 4.91383 12.7682C5.30877 12.8485 5.72503 12.7738 6.08632 12.557L8.31221 11.2217C8.36302 11.1913 8.39889 11.1429 8.4132 11.0856C8.42752 11.0283 8.41863 10.9688 8.38811 10.918C8.32534 10.8133 8.18903 10.779 8.08441 10.842L6.98635 11.5007C6.92688 11.5365 6.84964 11.5173 6.81401 11.4577C6.7783 11.3983 6.79757 11.3211 6.85703 11.2854L7.95518 10.6266L8.31182 10.4127C8.36263 10.3821 8.39858 10.3338 8.41289 10.2766C8.42721 10.2192 8.41832 10.1596 8.3878 10.1089C8.32495 10.0042 8.18864 9.97013 8.0841 10.0329L6.62932 10.9056C6.5697 10.9414 6.49269 10.9221 6.45698 10.8626C6.42127 10.8031 6.44062 10.726 6.5 10.6902L8.28547 9.61917C8.33628 9.58865 8.37215 9.54035 8.38646 9.48301C8.40078 9.42575 8.39189 9.3662 8.36145 9.31539C8.33101 9.26466 8.28263 9.22879 8.22529 9.21447C8.16764 9.20016 8.10833 9.20905 8.05767 9.23941L7.72715 9.43771C7.72707 9.43771 7.72707 9.43778 7.72699 9.43778H7.72692L6.27221 10.3105C6.21259 10.3464 6.13551 10.327 6.09987 10.2675C6.06416 10.208 6.08351 10.1308 6.1429 10.0951L7.59768 9.22242C7.64849 9.1919 7.68444 9.14352 7.69876 9.08634C7.71449 9.02357 7.70253 8.95939 7.66525 8.90558C7.60059 8.81206 7.46231 8.7872 7.35746 8.85021L5.13318 10.1846C5.08449 10.2137 5.02212 10.2066 4.98129 10.1672C4.94039 10.1277 4.93119 10.0656 4.95872 10.016L5.42123 9.1827C5.46764 9.0994 5.46583 8.99652 5.41636 8.91408L5.41638 8.91405Z"/>
</mask>
<path d="M5.40545 9.72833L7.22826 8.63481C7.44803 8.50283 7.73081 8.55891 7.87177 8.76256C7.92321 8.83673 7.94948 8.92318 7.95357 9.0112C8.02153 8.97573 8.09547 8.95646 8.17074 8.95646C8.20929 8.95646 8.24798 8.96125 8.28621 8.97077C8.40868 9.00137 8.51188 9.0779 8.57678 9.18613C8.64176 9.29452 8.66071 9.42155 8.63011 9.54388C8.60188 9.65707 8.53305 9.75233 8.43732 9.81769C8.50426 9.85718 8.562 9.91106 8.60306 9.97965C8.66803 10.088 8.68698 10.215 8.65646 10.3375C8.62587 10.4598 8.54933 10.563 8.44094 10.628L8.44031 10.6284C8.50607 10.6678 8.56278 10.7212 8.60337 10.7887C8.66842 10.8971 8.68738 11.0242 8.65678 11.1466C8.6261 11.269 8.54957 11.3722 8.44134 11.4372L6.21565 12.7724C5.80026 13.0215 5.32004 13.1075 4.86367 13.0143C4.40321 12.9202 4.02186 12.6556 3.78999 12.269C3.42304 11.6575 3.47803 10.9349 3.93323 10.3834C3.95407 10.3582 3.9746 10.3326 3.99324 10.306C4.01299 10.2779 4.03603 10.2449 4.0439 10.2336C4.09101 10.1494 4.85983 8.76423 4.85975 8.76439C4.93738 8.6243 5.0829 8.545 5.23298 8.54508C5.30298 8.54508 5.37401 8.56231 5.43954 8.59865C5.51867 8.64286 5.58514 8.70728 5.63162 8.78491C5.72719 8.9442 5.73058 9.14352 5.64059 9.30484L5.40545 9.72833ZM5.41638 8.91405C5.392 8.87338 5.35849 8.84097 5.31751 8.81801C5.23279 8.77113 5.12613 8.80165 5.07949 8.88605C4.52936 9.87714 4.34183 10.2149 4.26946 10.3351L4.27111 10.3355C4.26506 10.3556 4.26506 10.3556 4.19883 10.4502C4.17633 10.4823 4.15187 10.513 4.12693 10.5433C3.73552 11.0175 3.69007 11.6143 4.00525 12.1398C4.20048 12.4653 4.52314 12.6885 4.91383 12.7682C5.30877 12.8485 5.72503 12.7738 6.08632 12.557L8.31221 11.2217C8.36302 11.1913 8.39889 11.1429 8.4132 11.0856C8.42752 11.0283 8.41863 10.9688 8.38811 10.918C8.32534 10.8133 8.18903 10.779 8.08441 10.842L6.98635 11.5007C6.92688 11.5365 6.84964 11.5173 6.81401 11.4577C6.7783 11.3983 6.79757 11.3211 6.85703 11.2854L7.95518 10.6266L8.31182 10.4127C8.36263 10.3821 8.39858 10.3338 8.41289 10.2766C8.42721 10.2192 8.41832 10.1596 8.3878 10.1089C8.32495 10.0042 8.18864 9.97013 8.0841 10.0329L6.62932 10.9056C6.5697 10.9414 6.49269 10.9221 6.45698 10.8626C6.42127 10.8031 6.44062 10.726 6.5 10.6902L8.28547 9.61917C8.33628 9.58865 8.37215 9.54035 8.38646 9.48301C8.40078 9.42575 8.39189 9.3662 8.36145 9.31539C8.33101 9.26466 8.28263 9.22879 8.22529 9.21447C8.16764 9.20016 8.10833 9.20905 8.05767 9.23941L7.72715 9.43771C7.72707 9.43771 7.72707 9.43778 7.72699 9.43778H7.72692L6.27221 10.3105C6.21259 10.3464 6.13551 10.327 6.09987 10.2675C6.06416 10.208 6.08351 10.1308 6.1429 10.0951L7.59768 9.22242C7.64849 9.1919 7.68444 9.14352 7.69876 9.08634C7.71449 9.02357 7.70253 8.95939 7.66525 8.90558C7.60059 8.81206 7.46231 8.7872 7.35746 8.85021L5.13318 10.1846C5.08449 10.2137 5.02212 10.2066 4.98129 10.1672C4.94039 10.1277 4.93119 10.0656 4.95872 10.016L5.42123 9.1827C5.46764 9.0994 5.46583 8.99652 5.41636 8.91408L5.41638 8.91405Z" fill="#4CAF4F"/>
<path d="M5.40545 9.72833L5.63445 10.1101L4.20975 10.9647L5.01626 9.51223L5.40545 9.72833ZM7.22826 8.63481L7.45746 9.01644L7.45727 9.01655L7.22826 8.63481ZM7.87177 8.76256L7.50597 9.01625L7.50574 9.01591L7.87177 8.76256ZM7.95357 9.0112L8.15956 9.40583L7.54126 9.72857L7.50889 9.03186L7.95357 9.0112ZM8.28621 8.97077L8.39376 8.5388L8.39411 8.53889L8.28621 8.97077ZM8.57678 9.18613L8.95856 8.9572L8.9586 8.95726L8.57678 9.18613ZM8.63011 9.54388L8.19819 9.43613L8.19826 9.43585L8.63011 9.54388ZM8.43732 9.81769L8.21115 10.2011L7.60769 9.84514L8.1863 9.45006L8.43732 9.81769ZM8.60306 9.97965L8.22124 10.2085L8.22111 10.2083L8.60306 9.97965ZM8.65646 10.3375L9.08841 10.4451L9.08831 10.4455L8.65646 10.3375ZM8.44094 10.628L8.20497 10.2505L8.21184 10.2464L8.44094 10.628ZM8.44031 10.6284L8.21149 11.0103L7.58763 10.6364L8.20438 10.2509L8.44031 10.6284ZM8.60337 10.7887L8.98497 10.5595L8.98506 10.5597L8.60337 10.7887ZM8.65678 11.1466L9.08866 11.2545L9.08858 11.2549L8.65678 11.1466ZM8.44134 11.4372L8.67048 11.8189L8.67035 11.8189L8.44134 11.4372ZM6.21565 12.7724L6.44466 13.1542L6.4446 13.1542L6.21565 12.7724ZM4.86367 13.0143L4.77459 13.4505L4.77456 13.4505L4.86367 13.0143ZM3.78999 12.269L4.1717 12.04L4.17173 12.04L3.78999 12.269ZM3.93323 10.3834L3.58991 10.1L3.59038 10.0995L3.93323 10.3834ZM3.99324 10.306L3.62875 10.0505L3.62909 10.05L3.99324 10.306ZM4.0439 10.2336L4.43233 10.451L4.42182 10.4698L4.40954 10.4875L4.0439 10.2336ZM4.85975 8.76439L5.24911 8.98017L4.46159 8.56531L4.85975 8.76439ZM5.23298 8.54508V8.99024H5.23274L5.23298 8.54508ZM5.43954 8.59865L5.65544 8.20936L5.65664 8.21003L5.43954 8.59865ZM5.63162 8.78491L5.2499 9.01394L5.2497 9.0136L5.63162 8.78491ZM5.64059 9.30484L5.2514 9.08874L5.25183 9.08798L5.64059 9.30484ZM5.41638 8.91405L5.79816 8.68513L5.95256 8.94263L5.77167 9.18225L5.41638 8.91405ZM5.31751 8.81801L5.53305 8.42851L5.53514 8.42968L5.31751 8.81801ZM5.07949 8.88605L5.46912 9.10135L5.46871 9.10209L5.07949 8.88605ZM4.26946 10.3351L4.16635 10.7681L3.57401 10.6271L3.8881 10.1055L4.26946 10.3351ZM4.27111 10.3355L4.37422 9.90243L4.83334 10.0117L4.6974 10.4637L4.27111 10.3355ZM4.19883 10.4502L4.56353 10.7055L4.56304 10.7062L4.19883 10.4502ZM4.12693 10.5433L4.47059 10.8263L4.47025 10.8267L4.12693 10.5433ZM4.00525 12.1398L3.6235 12.3688L3.62349 12.3688L4.00525 12.1398ZM4.91383 12.7682L4.82512 13.2044L4.82478 13.2044L4.91383 12.7682ZM6.08632 12.557L5.85728 12.1753L5.85732 12.1753L6.08632 12.557ZM8.31221 11.2217L8.08321 10.84L8.08344 10.8399L8.31221 11.2217ZM8.4132 11.0856L7.9813 10.9778L7.98134 10.9776L8.4132 11.0856ZM8.38811 10.918L8.0065 11.1472L8.00639 11.147L8.38811 10.918ZM8.08441 10.842L8.31407 11.2233L8.31342 11.2237L8.08441 10.842ZM6.98635 11.5007L6.75717 11.1191L6.75734 11.119L6.98635 11.5007ZM6.81401 11.4577L7.19564 11.2285L7.19599 11.2291L6.81401 11.4577ZM6.85703 11.2854L6.62786 10.9037L6.62803 10.9036L6.85703 11.2854ZM7.95518 10.6266L8.18418 11.0083L8.18418 11.0083L7.95518 10.6266ZM8.31182 10.4127L8.54102 10.7943L8.54082 10.7944L8.31182 10.4127ZM8.41289 10.2766L8.84479 10.3844L8.84472 10.3847L8.41289 10.2766ZM8.3878 10.1089L8.00634 10.3384L8.00613 10.338L8.3878 10.1089ZM8.0841 10.0329L8.31326 10.4145L8.3131 10.4146L8.0841 10.0329ZM6.62932 10.9056L6.40021 10.5239L6.40032 10.5239L6.62932 10.9056ZM6.45698 10.8626L6.83861 10.6334L6.83861 10.6334L6.45698 10.8626ZM6.5 10.6902L6.2706 10.3088L6.271 10.3085L6.5 10.6902ZM8.28547 9.61917L8.51467 10.0008L8.51447 10.0009L8.28547 9.61917ZM8.38646 9.48301L7.95456 9.37519L7.9546 9.37505L8.38646 9.48301ZM8.36145 9.31539L8.74317 9.08636L8.74332 9.08662L8.36145 9.31539ZM8.22529 9.21447L8.33257 8.78244L8.33312 8.78257L8.22529 9.21447ZM8.05767 9.23941L7.82865 8.85768L7.82881 8.85759L8.05767 9.23941ZM7.72715 9.43771L7.95617 9.81943L7.85044 9.88286H7.72715V9.43771ZM7.72692 9.43778L7.49791 9.05606L7.60363 8.99263H7.72692V9.43778ZM6.27221 10.3105L6.04274 9.92905L6.0432 9.92877L6.27221 10.3105ZM6.09987 10.2675L6.4815 10.0383L6.48186 10.0389L6.09987 10.2675ZM6.1429 10.0951L5.9135 9.71364L5.9139 9.7134L6.1429 10.0951ZM7.59768 9.22242L7.82689 9.60403L7.82668 9.60415L7.59768 9.22242ZM7.69876 9.08634L7.26693 8.97824L7.26696 8.97812L7.69876 9.08634ZM7.66525 8.90558L7.29936 9.15914L7.29908 9.15873L7.66525 8.90558ZM7.35746 8.85021L7.58674 9.23177L7.58647 9.23194L7.35746 8.85021ZM5.13318 10.1846L5.36219 10.5663L5.36157 10.5667L5.13318 10.1846ZM4.98129 10.1672L4.67212 10.4875L4.67211 10.4875L4.98129 10.1672ZM4.95872 10.016L4.56944 9.80008L4.5695 9.79998L4.95872 10.016ZM5.42123 9.1827L5.03201 8.96667L5.03236 8.96604L5.42123 9.1827ZM5.41636 8.91408L5.03467 9.14315L4.8801 8.8856L5.06107 8.64587L5.41636 8.91408ZM5.17644 9.34659L6.99926 8.25308L7.45727 9.01655L5.63445 10.1101L5.17644 9.34659ZM6.99907 8.25319C7.40854 8.00728 7.95577 8.10174 8.23779 8.50921L7.50574 9.01591C7.5052 9.01514 7.50267 9.0114 7.49292 9.00946C7.48289 9.00747 7.47021 9.00877 7.45746 9.01644L6.99907 8.25319ZM8.23756 8.50887C8.34161 8.65889 8.3907 8.82808 8.39825 8.99054L7.50889 9.03186C7.50826 9.01827 7.50481 9.01457 7.50597 9.01625L8.23756 8.50887ZM7.74758 8.61657C7.87447 8.55034 8.01866 8.5113 8.17074 8.5113V9.40161C8.17228 9.40161 8.16859 9.40112 8.15956 9.40583L7.74758 8.61657ZM8.17074 8.5113C8.24634 8.5113 8.32114 8.52072 8.39376 8.5388L8.17867 9.40274C8.17483 9.40178 8.17223 9.40161 8.17074 9.40161V8.5113ZM8.39411 8.53889C8.63129 8.59815 8.83297 8.74776 8.95856 8.9572L8.19501 9.41507C8.19244 9.41078 8.18996 9.40841 8.18799 9.40695C8.18603 9.4055 8.18308 9.40384 8.17831 9.40265L8.39411 8.53889ZM8.9586 8.95726C9.08406 9.16656 9.12129 9.41472 9.06196 9.6519L8.19826 9.43585C8.19943 9.43119 8.19936 9.42787 8.199 9.42543C8.19864 9.42298 8.19768 9.41953 8.19497 9.415L8.9586 8.95726ZM9.06203 9.65163C9.00608 9.87589 8.86965 10.0615 8.68834 10.1853L8.1863 9.45006C8.19192 9.44622 8.19466 9.44298 8.19586 9.44129C8.19695 9.43975 8.19766 9.43829 8.1982 9.43613L9.06203 9.65163ZM8.66349 9.43427C8.7868 9.50701 8.90143 9.6114 8.985 9.75101L8.22111 10.2083C8.22156 10.2091 8.22169 10.209 8.22063 10.2079C8.21946 10.2068 8.21657 10.2043 8.21115 10.2011L8.66349 9.43427ZM8.98487 9.75078C9.11035 9.96012 9.14748 10.2081 9.08841 10.4451L8.22452 10.2298C8.22574 10.2249 8.22566 10.2215 8.22529 10.219C8.22492 10.2165 8.22397 10.2131 8.22124 10.2085L8.98487 9.75078ZM9.08831 10.4455C9.029 10.6826 8.87933 10.8841 8.67004 11.0097L8.21184 10.2464C8.21636 10.2437 8.21884 10.2411 8.22033 10.239C8.22182 10.237 8.22345 10.2341 8.22462 10.2294L9.08831 10.4455ZM8.67687 11.0055L8.67625 11.0059L8.20438 10.2509L8.20501 10.2506L8.67687 11.0055ZM8.66914 10.2466C8.79023 10.3192 8.90258 10.4224 8.98497 10.5595L8.22178 11.018C8.22213 11.0186 8.22213 11.0183 8.221 11.0172C8.21975 11.016 8.21684 11.0135 8.21149 11.0103L8.66914 10.2466ZM8.98506 10.5597C9.11077 10.7691 9.14792 11.0173 9.08866 11.2545L8.2249 11.0387C8.22611 11.0339 8.22603 11.0305 8.22567 11.0281C8.22531 11.0257 8.22437 11.0223 8.22168 11.0178L8.98506 10.5597ZM9.08858 11.2549C9.0292 11.4918 8.8797 11.6932 8.67048 11.8189L8.2122 11.0555C8.21659 11.0529 8.21904 11.0504 8.22056 11.0483C8.22208 11.0463 8.22377 11.0432 8.22498 11.0384L9.08858 11.2549ZM8.67035 11.8189L6.44466 13.1542L5.98664 12.3907L8.21233 11.0555L8.67035 11.8189ZM6.4446 13.1542C5.93797 13.458 5.3448 13.5669 4.77459 13.4505L4.95275 12.5782C5.29528 12.6481 5.66254 12.5851 5.98671 12.3907L6.4446 13.1542ZM4.77456 13.4505C4.19776 13.3326 3.70736 12.9966 3.40825 12.498L4.17173 12.04C4.33636 12.3145 4.60865 12.5079 4.95277 12.5782L4.77456 13.4505ZM3.40827 12.4981C2.94391 11.7241 3.01517 10.7964 3.58991 10.1L4.27654 10.6668C3.9409 11.0734 3.90217 11.5908 4.1717 12.04L3.40827 12.4981ZM3.59038 10.0995C3.6088 10.0772 3.62039 10.0624 3.62875 10.0505L4.35773 10.5616C4.32881 10.6028 4.29934 10.6393 4.27607 10.6674L3.59038 10.0995ZM3.62909 10.05C3.64833 10.0226 3.67088 9.99029 3.67825 9.97967L4.40954 10.4875C4.40119 10.4995 4.37764 10.5333 4.3574 10.5621L3.62909 10.05ZM3.65546 10.0161C3.67851 9.97495 3.88184 9.6088 4.08032 9.25129C4.17936 9.0729 4.27692 8.89715 4.34972 8.766C4.38612 8.70042 4.41633 8.646 4.43743 8.60798C4.44799 8.58897 4.45626 8.57405 4.4619 8.56389C4.46472 8.55881 4.46689 8.55492 4.46834 8.55229C4.46907 8.55098 4.46963 8.54998 4.47001 8.5493C4.47019 8.54896 4.47035 8.54868 4.47046 8.54849C4.47051 8.54839 4.47057 8.54828 4.47063 8.54817C4.47066 8.54811 4.47074 8.54797 4.4708 8.54787C4.47095 8.5476 5.06787 8.37088 5.25791 8.96347L4.46159 8.56531C4.65162 9.1579 5.24854 8.98119 5.24868 8.98094C5.24873 8.98086 5.24879 8.98075 5.2488 8.98073C5.24881 8.98071 5.24881 8.98072 5.24876 8.98079C5.24869 8.98093 5.24857 8.98115 5.24838 8.98148C5.24802 8.98213 5.24748 8.98311 5.24675 8.98441C5.2453 8.98702 5.24315 8.99091 5.24033 8.99599C5.23469 9.00614 5.22642 9.02105 5.21586 9.04006C5.19476 9.07809 5.16455 9.13252 5.12814 9.19809C5.05534 9.32925 4.95777 9.50502 4.85872 9.68343C4.66104 10.0395 4.4564 10.408 4.43233 10.451L3.65546 10.0161ZM4.47039 8.54861C4.62975 8.26104 4.92803 8.09976 5.23322 8.09993L5.23274 8.99024C5.23591 8.99024 5.23866 8.98949 5.24128 8.98798C5.24452 8.98611 5.24751 8.98305 5.24911 8.98017L4.47039 8.54861ZM5.23298 8.09993C5.37638 8.09993 5.522 8.13535 5.65544 8.20936L5.22364 8.98794C5.22602 8.98927 5.22959 8.99024 5.23298 8.99024V8.09993ZM5.65664 8.21003C5.80353 8.29209 5.92692 8.41156 6.01355 8.55623L5.2497 9.0136C5.24335 9.00299 5.2338 8.99363 5.22244 8.98728L5.65664 8.21003ZM6.01334 8.55588C6.19042 8.85101 6.19743 9.22039 6.02935 9.5217L5.25183 9.08798C5.26372 9.06666 5.26397 9.03738 5.2499 9.01394L6.01334 8.55588ZM6.02978 9.52093L5.79463 9.94442L5.01626 9.51223L5.2514 9.08874L6.02978 9.52093ZM5.0346 9.14297C5.05024 9.16906 5.07341 9.19151 5.09987 9.20634L5.53514 8.42968C5.64356 8.49044 5.73375 8.5777 5.79816 8.68513L5.0346 9.14297ZM5.10196 9.2075C5.23117 9.279 5.39609 9.23351 5.46912 9.10135L4.68987 8.67074C4.85617 8.36978 5.23442 8.26325 5.53305 8.42851L5.10196 9.2075ZM5.46871 9.10209C4.92229 10.0865 4.72854 10.4356 4.65082 10.5647L3.8881 10.1055C3.95513 9.99415 4.13644 9.66778 4.69028 8.67L5.46871 9.10209ZM4.37257 9.90204L4.37422 9.90243L4.16801 10.7685L4.16635 10.7681L4.37257 9.90204ZM4.6974 10.4637C4.69677 10.4658 4.68862 10.4946 4.67438 10.5271C4.66004 10.5599 4.64464 10.5856 4.6342 10.6022C4.61773 10.6283 4.59234 10.6643 4.56353 10.7055L3.83413 10.195C3.85103 10.1708 3.8625 10.1544 3.87093 10.1422C3.87505 10.1363 3.8778 10.1322 3.87964 10.1295C3.88155 10.1267 3.88171 10.1263 3.88087 10.1277C3.87947 10.1299 3.86934 10.146 3.85877 10.1701C3.85342 10.1823 3.84956 10.1929 3.84697 10.2006C3.84581 10.2041 3.84501 10.2067 3.84471 10.2076C3.84448 10.2084 3.84434 10.2089 3.84482 10.2073L4.6974 10.4637ZM4.56304 10.7062C4.53091 10.7519 4.49814 10.7928 4.47059 10.8263L3.78328 10.2603C3.8056 10.2332 3.82175 10.2126 3.83461 10.1943L4.56304 10.7062ZM4.47025 10.8267C4.19831 11.1561 4.16924 11.5478 4.38701 11.9109L3.62349 12.3688C3.2109 11.6809 3.27273 10.8789 3.78361 10.2599L4.47025 10.8267ZM4.387 11.9108C4.51444 12.1233 4.72749 12.2758 5.00287 12.3321L4.82478 13.2044C4.31879 13.1011 3.88652 12.8073 3.6235 12.3688L4.387 11.9108ZM5.00253 12.332C5.28343 12.3891 5.58688 12.3376 5.85728 12.1753L6.31535 12.9387C5.86318 13.2101 5.3341 13.3079 4.82512 13.2044L5.00253 12.332ZM5.85732 12.1753L8.08321 10.84L8.54121 11.6035L6.31532 12.9388L5.85732 12.1753ZM8.08344 10.8399C8.033 10.8701 7.99567 10.9202 7.9813 10.9778L8.8451 11.1934C8.80211 11.3656 8.69303 11.5125 8.54098 11.6036L8.08344 10.8399ZM7.98134 10.9776C7.96692 11.0353 7.97637 11.097 8.0065 11.1472L8.76972 10.6888C8.86089 10.8405 8.88812 11.0213 8.84507 11.1935L7.98134 10.9776ZM8.00639 11.147C8.06958 11.2523 8.2067 11.288 8.31407 11.2233L7.85475 10.4606C8.17136 10.27 8.58111 10.3744 8.76983 10.6889L8.00639 11.147ZM8.31342 11.2237L7.21536 11.8825L6.75734 11.119L7.8554 10.4602L8.31342 11.2237ZM7.21552 11.8824C6.94583 12.0443 6.59449 11.9578 6.43202 11.6863L7.19599 11.2291C7.10478 11.0767 6.90794 11.0286 6.75717 11.1191L7.21552 11.8824ZM6.43238 11.6869C6.27006 11.4166 6.35768 11.066 6.62786 10.9037L7.08621 11.667C7.23745 11.5762 7.28653 11.3799 7.19564 11.2285L6.43238 11.6869ZM6.62803 10.9036L7.72618 10.2449L8.18418 11.0083L7.08603 11.6671L6.62803 10.9036ZM7.72617 10.2449L8.08281 10.0309L8.54082 10.7944L8.18418 11.0083L7.72617 10.2449ZM8.08261 10.031C8.03303 10.0608 7.99559 10.1104 7.98106 10.1685L8.84472 10.3847C8.80156 10.5571 8.69222 10.7035 8.54102 10.7943L8.08261 10.031ZM7.98099 10.1688C7.96669 10.226 7.97591 10.2878 8.00634 10.3384L8.76925 9.87941C8.86072 10.0315 8.88772 10.2124 8.84479 10.3844L7.98099 10.1688ZM8.00613 10.338C8.06967 10.4438 8.20674 10.4785 8.31326 10.4145L7.85494 9.65126C8.17053 9.46176 8.58023 9.56453 8.76946 9.87977L8.00613 10.338ZM8.3131 10.4146L6.85832 11.2874L6.40032 10.5239L7.8551 9.65116L8.3131 10.4146ZM6.85842 11.2873C6.58773 11.4498 6.23743 11.3617 6.07535 11.0918L6.83861 10.6334C6.74795 10.4824 6.55166 10.433 6.40021 10.5239L6.85842 11.2873ZM6.07535 11.0918C5.91283 10.8211 6.00109 10.4708 6.2706 10.3088L6.7294 11.0717C6.88014 10.9811 6.9297 10.7851 6.83861 10.6334L6.07535 11.0918ZM6.271 10.3085L8.05647 9.23743L8.51447 10.0009L6.729 11.072L6.271 10.3085ZM8.05626 9.23756C8.00648 9.26746 7.96901 9.31733 7.95456 9.37519L8.81836 9.59083C8.77529 9.76337 8.66608 9.90984 8.51467 10.0008L8.05626 9.23756ZM7.9546 9.37505C7.94019 9.43269 7.94965 9.49421 7.97958 9.54416L8.74332 9.08662C8.83413 9.2382 8.86137 9.4188 8.81833 9.59098L7.9546 9.37505ZM7.97973 9.54442C8.00994 9.59476 8.05998 9.63202 8.11747 9.64637L8.33312 8.78257C8.50529 8.82556 8.65208 8.93455 8.74317 9.08636L7.97973 9.54442ZM8.11802 9.64651C8.17443 9.66052 8.23601 9.65151 8.28653 9.62123L7.82881 8.85759C7.98065 8.76658 8.16085 8.7398 8.33257 8.78244L8.11802 9.64651ZM8.28669 9.62113L7.95617 9.81943L7.49813 9.05598L7.82865 8.85768L8.28669 9.62113ZM7.72715 9.88286C7.74576 9.88286 7.76536 9.88169 7.78572 9.87899C7.80613 9.87628 7.82667 9.87211 7.84716 9.86638C7.86765 9.86064 7.88722 9.85357 7.90578 9.84544C7.92431 9.83732 7.94109 9.82847 7.95613 9.81944C7.98597 9.80153 8.00801 9.78352 8.0216 9.77153C8.02839 9.76554 8.03369 9.76049 8.03689 9.7574C8.0398 9.75458 8.04225 9.75212 8.04184 9.75253C8.04184 9.75253 8.04183 9.75253 8.04183 9.75253C8.04183 9.75254 8.04182 9.75254 8.04182 9.75255C8.0418 9.75256 8.04178 9.75258 8.04176 9.75261C8.04171 9.75266 8.04163 9.75274 8.04153 9.75284C8.04133 9.75303 8.041 9.75336 8.0406 9.75376C8.03981 9.75454 8.0385 9.75583 8.03687 9.75741C8.03367 9.76051 8.02837 9.76557 8.02157 9.77156C8.00797 9.78356 7.98592 9.80158 7.95607 9.81949C7.94102 9.82852 7.92423 9.83738 7.9057 9.8455C7.88713 9.85364 7.86756 9.86071 7.84705 9.86645C7.82656 9.87219 7.80601 9.87636 7.78559 9.87907C7.76522 9.88177 7.74561 9.88294 7.72699 9.88294V8.99263C7.70839 8.99263 7.68879 8.9938 7.66843 8.9965C7.64802 8.99921 7.62747 9.00338 7.60699 9.00911C7.58649 9.01485 7.56692 9.02192 7.54836 9.03005C7.52984 9.03817 7.51306 9.04703 7.49801 9.05605C7.46817 9.07396 7.44613 9.09197 7.43254 9.10396C7.42575 9.10995 7.42045 9.115 7.41726 9.11809C7.41435 9.12091 7.4119 9.12338 7.41231 9.12296C7.41231 9.12296 7.41231 9.12296 7.41232 9.12296C7.41232 9.12296 7.41233 9.12295 7.41233 9.12294C7.41234 9.12293 7.41236 9.12291 7.41239 9.12289C7.41244 9.12284 7.41252 9.12275 7.41262 9.12265C7.41282 9.12246 7.41314 9.12213 7.41355 9.12173C7.41434 9.12095 7.41564 9.11966 7.41727 9.11808C7.42047 9.11498 7.42578 9.10992 7.43257 9.10393C7.44617 9.09193 7.46822 9.07391 7.49808 9.056C7.51313 9.04697 7.52992 9.03811 7.54845 9.02999C7.56701 9.02185 7.58659 9.01478 7.6071 9.00904C7.62759 9.0033 7.64814 8.99913 7.66856 8.99642C7.68893 8.99372 7.70853 8.99255 7.72715 8.99255V9.88286ZM7.72699 9.88294H7.72692V8.99263H7.72699V9.88294ZM7.95593 9.81951L6.50122 10.6922L6.0432 9.92877L7.49791 9.05606L7.95593 9.81951ZM6.50169 10.692C6.231 10.8548 5.87994 10.7669 5.71789 10.4961L6.48186 10.0389C6.39107 9.88717 6.19418 9.83795 6.04274 9.92905L6.50169 10.692ZM5.71824 10.4967C5.55573 10.226 5.64399 9.8757 5.9135 9.71364L6.3723 10.4766C6.52304 10.386 6.5726 10.19 6.4815 10.0383L5.71824 10.4967ZM5.9139 9.7134L7.36868 8.84068L7.82668 9.60415L6.3719 10.4769L5.9139 9.7134ZM7.36848 8.84081C7.3189 8.87058 7.28146 8.9202 7.26693 8.97824L8.13059 9.19444C8.08743 9.36685 7.97809 9.51322 7.82689 9.60403L7.36848 8.84081ZM7.26696 8.97812C7.25097 9.04189 7.2648 9.10926 7.29936 9.15914L8.03113 8.65203C8.14027 8.80951 8.178 9.00525 8.13056 9.19456L7.26696 8.97812ZM7.29908 9.15873C7.34223 9.22115 7.40164 9.24905 7.44762 9.25732C7.49369 9.26561 7.54302 9.25805 7.58674 9.23177L7.12818 8.46864C7.40985 8.29939 7.81757 8.34311 8.03142 8.65244L7.29908 9.15873ZM7.58647 9.23194L5.36219 10.5663L4.90418 9.80284L7.12846 8.46847L7.58647 9.23194ZM5.36157 10.5667C5.14083 10.6986 4.85806 10.667 4.67212 10.4875L5.29046 9.84691C5.18618 9.74625 5.02815 9.72874 4.90479 9.80247L5.36157 10.5667ZM4.67211 10.4875C4.48602 10.3078 4.44427 10.0257 4.56944 9.80008L5.348 10.2319C5.41811 10.1055 5.39477 9.94761 5.29047 9.84692L4.67211 10.4875ZM4.5695 9.79998L5.03201 8.96667L5.81046 9.39873L5.34794 10.232L4.5695 9.79998ZM5.03236 8.96604C5.00061 9.02303 5.00283 9.09011 5.03467 9.14315L5.79805 8.685C5.92883 8.90292 5.93467 9.17577 5.81011 9.39936L5.03236 8.96604ZM5.06107 8.64587L5.06109 8.64584L5.77167 9.18225L5.77164 9.18229L5.06107 8.64587Z" fill="#4CAF4F" mask="url(#path-3-inside-2_8_1359)"/>
<path d="M9.73055 8.98515C9.69581 8.98544 9.66088 8.98984 9.62642 8.99846L9.73055 8.98515ZM9.73055 8.98515C9.7312 8.97559 9.73204 8.96601 9.73307 8.95642L9.73055 8.98515ZM9.32692 9.99427C9.3269 9.99429 9.32689 9.99431 9.32687 9.99433C9.32687 9.99434 9.32687 9.99434 9.32687 9.99434L9.32692 9.99427ZM9.32692 9.99427L9.30241 9.97954L9.32693 9.99424M9.32692 9.99427L9.32693 9.99424M9.32693 9.99424C9.32747 9.99334 9.32801 9.99245 9.32855 9.99157L9.32693 9.99424ZM11.0335 11.3099L11.0335 11.31L11.0335 11.3099Z" fill="#4CAF4F" stroke="#4CAF4F" stroke-width="0.445155"/>
</svg>
