<svg width="15" height="12" viewBox="0 0 15 12" fill="none" xmlns="http://www.w3.org/2000/svg">
<path d="M1.39106 3.80796V3.97489H1.558H13.5772H13.7441V3.80796V3.05676C13.7441 2.68044 13.5946 2.31953 13.3285 2.05342C13.0624 1.78732 12.7015 1.63783 12.3252 1.63783H2.81C2.43367 1.63783 2.07276 1.78732 1.80666 2.05342C1.54056 2.31953 1.39106 2.68044 1.39106 3.05676V3.80796ZM13.7441 4.80956V4.64263H13.5772H1.558H1.39106V4.80956V9.56716C1.39106 9.94348 1.54056 10.3044 1.80666 10.5705C2.07276 10.8366 2.43367 10.9861 2.81 10.9861H12.3252C12.7015 10.9861 13.0624 10.8366 13.3285 10.5705C13.5946 10.3044 13.7441 9.94348 13.7441 9.56716V4.80956ZM0.72333 3.05676C0.72333 2.50334 0.943174 1.97259 1.3345 1.58127C1.72583 1.18994 2.25658 0.970095 2.81 0.970095H12.3252C12.8786 0.970095 13.4094 1.18994 13.8007 1.58127C14.192 1.97259 14.4119 2.50334 14.4119 3.05676V9.56716C14.4119 10.1206 14.192 10.6513 13.8007 11.0427C13.4094 11.434 12.8786 11.6538 12.3252 11.6538H2.81C2.25658 11.6538 1.72583 11.434 1.3345 11.0427C0.943174 10.6513 0.72333 10.1206 0.72333 9.56716V3.05676ZM10.0716 7.98129H11.574C11.6625 7.98129 11.7475 8.01647 11.8101 8.07908C11.8727 8.14169 11.9079 8.22661 11.9079 8.31516C11.9079 8.40371 11.8727 8.48863 11.8101 8.55124C11.7475 8.61385 11.6625 8.64903 11.574 8.64903H10.0716C9.98305 8.64903 9.89812 8.61385 9.83551 8.55124C9.7729 8.48863 9.73773 8.40371 9.73773 8.31516C9.73773 8.22661 9.7729 8.14169 9.83551 8.07908C9.89813 8.01647 9.98305 7.98129 10.0716 7.98129Z" fill="#4CAF4F" stroke="#4CAF4F" stroke-width="0.333867"/>
</svg>
