<svg width="17" height="17" viewBox="0 0 17 17" fill="none" xmlns="http://www.w3.org/2000/svg">
<path d="M13.7577 14.3215V12.986C13.7577 12.2777 13.4763 11.5983 12.9754 11.0974C12.4745 10.5965 11.7951 10.3151 11.0868 10.3151H10.419C10.2419 10.3151 10.0721 10.2448 9.94688 10.1195C9.82166 9.99431 9.75131 9.82446 9.75131 9.64737V6.30871C9.75131 5.95452 9.6106 5.61484 9.36016 5.36439C9.10971 5.11394 8.77003 4.97324 8.41584 4.97324C8.06165 4.97324 7.72197 5.11394 7.47152 5.36439C7.22107 5.61484 7.08037 5.95452 7.08037 6.30871V12.3183L5.47781 10.1816C5.35342 10.0157 5.19212 9.88108 5.00668 9.78836C4.82124 9.69564 4.61677 9.64737 4.40944 9.64737H4.11964C3.54206 9.64737 3.07397 10.1155 3.07397 10.693C3.07397 10.8827 3.12539 11.069 3.22288 11.2312L5.07717 14.3215M8.41584 2.97004V2.30231V2.97004ZM12.4222 6.97644H13.09H12.4222ZM3.74171 6.97644H4.40944H3.74171ZM5.30621 3.86681L4.83412 3.39472L5.30621 3.86681ZM11.5255 3.86681L11.9976 3.39472L11.5255 3.86681Z" fill="#4CAF4F"/>
<path d="M13.7577 14.3215V12.986C13.7577 12.2777 13.4763 11.5983 12.9754 11.0974C12.4745 10.5965 11.7951 10.3151 11.0868 10.3151H10.419C10.2419 10.3151 10.0721 10.2448 9.94688 10.1195C9.82166 9.99431 9.75131 9.82446 9.75131 9.64737V6.30871C9.75131 5.95452 9.6106 5.61484 9.36016 5.36439C9.10971 5.11394 8.77003 4.97324 8.41584 4.97324V4.97324C8.06165 4.97324 7.72197 5.11394 7.47152 5.36439C7.22107 5.61484 7.08037 5.95452 7.08037 6.30871V12.3183L5.47781 10.1816C5.35342 10.0157 5.19212 9.88108 5.00668 9.78836C4.82124 9.69564 4.61677 9.64737 4.40944 9.64737H4.11964C3.54206 9.64737 3.07397 10.1155 3.07397 10.693C3.07397 10.8827 3.12539 11.069 3.22288 11.2312L5.07717 14.3215M8.41584 2.97004V2.30231M12.4222 6.97644H13.09M3.74171 6.97644H4.40944M5.30621 3.86681L4.83412 3.39472M11.5255 3.86681L11.9976 3.39472" stroke="#4CAF4F" stroke-width="0.667733" stroke-linecap="round" stroke-linejoin="round"/>
</svg>
