<svg width="59" height="12" viewBox="0 0 59 12" fill="none" xmlns="http://www.w3.org/2000/svg">
<g clip-path="url(#clip0_43_156)">
<path opacity="0.1" fill-rule="evenodd" clip-rule="evenodd" d="M0.0878906 5.72722C0.0878906 2.77699 2.47952 0.385357 5.42976 0.385357C8.37999 0.385357 10.7716 2.77699 10.7716 5.72722C10.7716 8.67745 8.37999 11.0691 5.42976 11.0691C2.47952 11.0691 0.0878906 8.67745 0.0878906 5.72722Z" fill="white"/>
<path fill-rule="evenodd" clip-rule="evenodd" d="M5.43007 2.87822C4.65632 2.87822 4.55922 2.88161 4.25532 2.89544C3.95202 2.90933 3.74499 2.95734 3.56384 3.0278C3.37646 3.10057 3.21751 3.19791 3.05915 3.35633C2.90067 3.51468 2.80333 3.67364 2.73032 3.86096C2.65969 4.04217 2.61162 4.24926 2.59796 4.55244C2.58437 4.85634 2.58081 4.9535 2.58081 5.72725C2.58081 6.501 2.58425 6.5978 2.59802 6.9017C2.61197 7.205 2.65999 7.41203 2.73038 7.59318C2.80321 7.78056 2.90055 7.93952 3.05897 8.09787C3.21727 8.25635 3.37622 8.35393 3.56349 8.4267C3.74476 8.49715 3.95184 8.54517 4.25509 8.55906C4.55898 8.57289 4.65603 8.57627 5.42972 8.57627C6.20352 8.57627 6.30033 8.57289 6.60423 8.55906C6.90753 8.54517 7.1148 8.49715 7.29606 8.4267C7.48339 8.35393 7.6421 8.25635 7.8004 8.09787C7.95888 7.93952 8.05622 7.78056 8.12923 7.59324C8.19926 7.41203 8.24734 7.20494 8.26159 6.90176C8.27524 6.59786 8.2788 6.501 8.2788 5.72725C8.2788 4.9535 8.27524 4.8564 8.26159 4.5525C8.24734 4.2492 8.19926 4.04217 8.12923 3.86102C8.05622 3.67364 7.95888 3.51468 7.8004 3.35633C7.64192 3.19785 7.48345 3.10051 7.29589 3.0278C7.11426 2.95734 6.90711 2.90933 6.60381 2.89544C6.29991 2.88161 6.20317 2.87822 5.42918 2.87822H5.43007ZM5.17448 3.39163C5.25033 3.39152 5.33497 3.39163 5.43006 3.39163C6.19075 3.39163 6.28091 3.39437 6.5813 3.40802C6.85908 3.42072 7.00984 3.46713 7.11027 3.50613C7.24323 3.55777 7.33802 3.6195 7.43767 3.71921C7.53739 3.81893 7.59912 3.9139 7.65087 4.04685C7.68987 4.14716 7.73634 4.29792 7.74899 4.5757C7.76264 4.87604 7.76561 4.96626 7.76561 5.72659C7.76561 6.48692 7.76264 6.57714 7.74899 6.87748C7.73629 7.15526 7.68987 7.30602 7.65087 7.40633C7.59924 7.53928 7.53739 7.63395 7.43767 7.73361C7.33796 7.83332 7.24329 7.89505 7.11027 7.94669C7.00996 7.98586 6.85908 8.03216 6.5813 8.04486C6.28097 8.05851 6.19075 8.06148 5.43006 8.06148C4.66931 8.06148 4.57915 8.05851 4.27882 8.04486C4.00104 8.03204 3.85028 7.98563 3.74979 7.94663C3.61683 7.89499 3.52187 7.83326 3.42215 7.73355C3.32243 7.63383 3.26071 7.5391 3.20895 7.40609C3.16995 7.30578 3.12348 7.15502 3.11084 6.87724C3.09718 6.5769 3.09445 6.48668 3.09445 5.72588C3.09445 4.96507 3.09718 4.87532 3.11084 4.57499C3.12354 4.29721 3.16995 4.14645 3.20895 4.04602C3.26059 3.91307 3.32243 3.8181 3.42215 3.71838C3.52187 3.61867 3.61683 3.55694 3.74979 3.50518C3.85022 3.46601 4.00104 3.41971 4.27882 3.40695C4.54164 3.39508 4.64349 3.39152 5.17448 3.39092V3.39163ZM6.95085 3.86469C6.7621 3.86469 6.60896 4.01765 6.60896 4.20646C6.60896 4.3952 6.7621 4.54834 6.95085 4.54834C7.13959 4.54834 7.29273 4.3952 7.29273 4.20646C7.29273 4.01771 7.13959 3.86469 6.95085 3.86469ZM5.43008 4.26415C4.62208 4.26415 3.96698 4.91925 3.96698 5.72724C3.96698 6.53524 4.62208 7.19004 5.43008 7.19004C6.23807 7.19004 6.89293 6.53524 6.89293 5.72724C6.89293 4.91925 6.23807 4.26415 5.43008 4.26415ZM5.43007 4.77757C5.95452 4.77757 6.37974 5.20272 6.37974 5.72724C6.37974 6.2517 5.95452 6.67692 5.43007 6.67692C4.90555 6.67692 4.48039 6.2517 4.48039 5.72724C4.48039 5.20272 4.90555 4.77757 5.43007 4.77757Z" fill="white"/>
<path opacity="0.1" fill-rule="evenodd" clip-rule="evenodd" d="M16.1135 5.72722C16.1135 2.77699 18.5052 0.385357 21.4554 0.385357C24.4056 0.385357 26.7973 2.77699 26.7973 5.72722C26.7973 8.67745 24.4056 11.0691 21.4554 11.0691C18.5052 11.0691 16.1135 8.67745 16.1135 5.72722Z" fill="white"/>
<path fill-rule="evenodd" clip-rule="evenodd" d="M24.3044 5.72327C24.3044 5.91594 24.2848 6.10835 24.2463 6.2959C24.2087 6.47899 24.1531 6.65875 24.0802 6.83058C24.009 6.99938 23.9206 7.16204 23.8174 7.31374C23.7157 7.46447 23.5986 7.60589 23.4699 7.7348C23.3409 7.86316 23.199 7.97998 23.0483 8.0821C22.8962 8.18461 22.7333 8.27282 22.5644 8.34437C22.3923 8.41689 22.2121 8.47245 22.0292 8.50995C21.8414 8.54858 21.6483 8.5683 21.4553 8.5683C21.2622 8.5683 21.0691 8.54858 20.8816 8.50995C20.6984 8.47245 20.5182 8.41689 20.3463 8.34437C20.1774 8.27282 20.0143 8.18461 19.8621 8.0821C19.7115 7.97999 19.5696 7.86316 19.4409 7.7348C19.3121 7.60589 19.1949 7.46447 19.0931 7.31374C18.9904 7.16204 18.9019 6.99937 18.8304 6.83058C18.7575 6.65875 18.7017 6.47898 18.664 6.2959C18.6259 6.10835 18.6064 5.91594 18.6064 5.72327C18.6064 5.53045 18.6259 5.33764 18.6641 5.1505C18.7018 4.9674 18.7575 4.78737 18.8304 4.61581C18.9019 4.44689 18.9904 4.28408 19.0931 4.13238C19.1949 3.98152 19.3121 3.84037 19.4409 3.71131C19.5696 3.58295 19.7115 3.46641 19.8621 3.36444C20.0143 3.2615 20.1774 3.1733 20.3463 3.10161C20.5182 3.02894 20.6984 2.97324 20.8816 2.93602C21.0691 2.89768 21.2622 2.87822 21.4553 2.87822C21.6483 2.87822 21.8414 2.89768 22.0292 2.93602C22.2121 2.97325 22.3923 3.02895 22.5644 3.10161C22.7333 3.17328 22.8962 3.2615 23.0484 3.36444C23.199 3.46641 23.3409 3.58295 23.4699 3.71131C23.5986 3.84037 23.7157 3.98152 23.8174 4.13238C23.9206 4.28408 24.009 4.4469 24.0802 4.61581C24.1531 4.78737 24.2087 4.9674 24.2463 5.1505C24.2848 5.33764 24.3044 5.53045 24.3044 5.72327ZM20.4172 3.52572C19.7387 3.84565 19.2323 4.46995 19.0744 5.22233C19.1386 5.22288 20.1525 5.23567 21.3206 4.92573C20.8995 4.17863 20.4496 3.56893 20.4172 3.52572ZM21.5222 5.29985C20.2695 5.67436 19.0673 5.64741 19.0242 5.64575C19.0235 5.67187 19.0223 5.69714 19.0223 5.72327C19.0223 6.34741 19.2581 6.91642 19.6456 7.34666C19.6448 7.3454 20.3106 6.16586 21.6236 5.74188C21.6553 5.73133 21.6876 5.72187 21.7196 5.71271C21.6586 5.57463 21.5919 5.43627 21.5222 5.29985ZM23.0621 3.89983C22.6338 3.52266 22.0713 3.29388 21.4553 3.29388C21.2576 3.29388 21.0658 3.31777 20.882 3.36195C20.9184 3.41085 21.3754 4.01625 21.7915 4.77917C22.7096 4.4355 23.0561 3.90872 23.0621 3.89983ZM21.8855 6.11529C21.88 6.11709 21.8746 6.11863 21.8693 6.12057C20.4338 6.6203 19.965 7.62739 19.9599 7.63839C20.373 7.95914 20.8911 8.15266 21.4553 8.15266C21.7923 8.15266 22.1132 8.08416 22.4052 7.96012C22.3692 7.74785 22.2278 7.00381 21.8855 6.11529ZM22.8149 7.73813C23.3612 7.37 23.7492 6.78544 23.8574 6.10833C23.8074 6.09222 23.1267 5.87703 22.3413 6.00276C22.6605 6.87851 22.7901 7.59172 22.8149 7.73813ZM21.9788 5.1412C22.0353 5.25706 22.09 5.37498 22.1405 5.49349C22.1584 5.53601 22.176 5.57769 22.1931 5.61935C23.0289 5.51433 23.8523 5.69103 23.8875 5.69825C23.882 5.1223 23.6756 4.59372 23.3343 4.17989C23.3297 4.1864 22.9394 4.74944 21.9788 5.1412Z" fill="white"/>
<path opacity="0.1" fill-rule="evenodd" clip-rule="evenodd" d="M32.1392 5.72722C32.1392 2.77699 34.5308 0.385357 37.481 0.385357C40.4313 0.385357 42.8229 2.77699 42.8229 5.72722C42.8229 8.67745 40.4313 11.0691 37.481 11.0691C34.5308 11.0691 32.1392 8.67745 32.1392 5.72722Z" fill="white"/>
<path fill-rule="evenodd" clip-rule="evenodd" d="M37.321 4.72729L37.3322 4.91213L37.1454 4.8895C36.4653 4.80274 35.8712 4.5085 35.3668 4.01434L35.1202 3.76914L35.0567 3.95021C34.9222 4.35384 35.0081 4.78011 35.2883 5.0668C35.4378 5.22523 35.4042 5.24787 35.1463 5.15356C35.0567 5.12338 34.9782 5.10075 34.9707 5.11206C34.9446 5.13847 35.0343 5.48174 35.1052 5.61755C35.2024 5.80616 35.4004 5.991 35.6171 6.1004L35.8002 6.18716L35.5835 6.19093C35.3743 6.19093 35.3668 6.1947 35.3892 6.27392C35.464 6.51912 35.7591 6.7794 36.0879 6.89257L36.3196 6.97179L36.1178 7.0925C35.8189 7.26602 35.4677 7.3641 35.1165 7.37165C34.9483 7.37542 34.8101 7.39051 34.8101 7.40182C34.8101 7.43955 35.2659 7.65079 35.5312 7.73378C36.3271 7.97898 37.2724 7.87336 37.9824 7.45464C38.4868 7.15663 38.9912 6.56438 39.2266 5.991C39.3537 5.68545 39.4807 5.12715 39.4807 4.85932C39.4807 4.6858 39.4919 4.66317 39.7012 4.45569C39.8245 4.33498 39.9403 4.20295 39.9627 4.16523C40.0001 4.09355 39.9964 4.09355 39.8058 4.15768C39.4882 4.27085 39.4433 4.25576 39.6003 4.08601C39.7161 3.9653 39.8544 3.74651 39.8544 3.68238C39.8544 3.67106 39.7983 3.68992 39.7348 3.72387C39.6675 3.7616 39.5181 3.81818 39.406 3.85213L39.2042 3.91626L39.0211 3.79177C38.9202 3.72387 38.7782 3.64843 38.7035 3.62579C38.513 3.57298 38.2215 3.58053 38.0496 3.64088C37.5826 3.81064 37.2874 4.24822 37.321 4.72729Z" fill="white"/>
<path opacity="0.1" fill-rule="evenodd" clip-rule="evenodd" d="M48.1648 5.72722C48.1648 2.77699 50.5564 0.385357 53.5067 0.385357C56.4569 0.385357 58.8485 2.77699 58.8485 5.72722C58.8485 8.67745 56.4569 11.0691 53.5067 11.0691C50.5564 11.0691 48.1648 8.67745 48.1648 5.72722Z" fill="white"/>
<path fill-rule="evenodd" clip-rule="evenodd" d="M55.7328 3.89082C55.978 3.95809 56.1711 4.15633 56.2366 4.40806C56.3557 4.86431 56.3557 5.81626 56.3557 5.81626C56.3557 5.81626 56.3557 6.76819 56.2366 7.22446C56.1711 7.4762 55.978 7.67443 55.7328 7.74174C55.2885 7.86398 53.5067 7.86398 53.5067 7.86398C53.5067 7.86398 51.7249 7.86398 51.2805 7.74174C51.0354 7.67443 50.8423 7.4762 50.7768 7.22446C50.6577 6.76819 50.6577 5.81626 50.6577 5.81626C50.6577 5.81626 50.6577 4.86431 50.7768 4.40806C50.8423 4.15633 51.0354 3.95809 51.2805 3.89082C51.7249 3.76855 53.5067 3.76855 53.5067 3.76855C53.5067 3.76855 55.2885 3.76855 55.7328 3.89082ZM52.9725 5.01496V6.79559L54.397 5.90531L52.9725 5.01496Z" fill="white"/>
</g>
<defs>
<clipPath id="clip0_43_156">
<rect width="58.7605" height="10.6837" fill="white" transform="translate(0.0878906 0.385357)"/>
</clipPath>
</defs>
</svg>
